<mxfile host="Electron" modified="2023-10-24T07:49:15.102Z" agent="Mozilla/5.0 (Windows NT 10.0; Win64; x64) AppleWebKit/537.36 (KHTML, like Gecko) draw.io/22.0.2 Chrome/114.0.5735.289 Electron/25.8.4 Safari/537.36" etag="QFTE-8vUreduQuaHcyTB" version="22.0.2" type="device">
  <diagram name="Page-1" id="EMvarkjj7pZZEXy0MFVM">
    <mxGraphModel dx="493" dy="289" grid="1" gridSize="10" guides="1" tooltips="1" connect="1" arrows="1" fold="1" page="1" pageScale="1" pageWidth="827" pageHeight="1169" math="0" shadow="0">
      <root>
        <mxCell id="0" />
        <mxCell id="1" parent="0" />
        <mxCell id="kkhZQI9KyQwzsgTlf-WE-1" value="" style="rounded=1;whiteSpace=wrap;html=1;fillColor=#d5e8d4;strokeColor=#82b366;fontSize=15;fontStyle=1" parent="1" vertex="1">
          <mxGeometry x="160.39" y="219.75" width="159.61" height="120" as="geometry" />
        </mxCell>
        <mxCell id="kkhZQI9KyQwzsgTlf-WE-2" value="" style="rounded=1;whiteSpace=wrap;html=1;fillColor=#e1d5e7;strokeColor=#9673a6;" parent="1" vertex="1">
          <mxGeometry x="440" y="80" width="320" height="400" as="geometry" />
        </mxCell>
        <mxCell id="kkhZQI9KyQwzsgTlf-WE-3" value="AWS cloud infrastructure" style="text;html=1;strokeColor=#9673a6;fillColor=#CDA2BE;align=center;verticalAlign=middle;whiteSpace=wrap;rounded=1;fontSize=15;fontStyle=1" parent="1" vertex="1">
          <mxGeometry x="522.5" y="90" width="155" height="40" as="geometry" />
        </mxCell>
        <mxCell id="kkhZQI9KyQwzsgTlf-WE-12" value="" style="shape=image;verticalLabelPosition=bottom;labelBackgroundColor=default;verticalAlign=top;aspect=fixed;imageAspect=0;image=data:image/png,iVBORw0KGgoAAAANSUhEUgAAAeAAAAIACAMAAABtpk+4AAAB4FBMVEUAAAC3lAH0uyzVqh8iECcmJTD0uyz0uyvwriLssyb0uyzkrB30uyvwuSrvtyj0uyv0uywAAADyuiv0uiv0uyvxtibytScAAAD0uyz0uyv0uyz0uyz0uyv0uysAAADzuyvzuyvzuyryuSrxuin0uysAAAAAAADzuyvyuCn0uywAAAD0uyv0uyv0uyvxuCgAAABcVGpcVGrzuysAAAAAAAD0uywAAADzuijsuChcVGr0uyv0uyz0uyvzuyz0uyvzuir0uitbU2kAAAD0uinzuSryuirztiYAAAD0uyz0uivzuioAAAAAAAAAAABbVGn0uipZUmf0uytbU2kAAAAAAAAAAAD0uysAAADzuyvzuisAAABbUmgAAAAAAABXS2JcVGoAAAAAAAD0uyxbU2oAAAAAAABbU2kAAAAAAABcVGr0uyv0uysAAAD0uir0uyxcVGkAAAAAAAAAAAAAAABcVGlcU2oAAABbVGlbU2pbU2lbVGoAAAAAAADzuitbU2nyuitZUWhaU2kAAAAAAABbU2pcU2lcU2oAAABZUWhZU2n0uSlcVGr0uytbVGoAAABbU2lcVGoAAABbU2lWTmJbU2oAAABXT2ZcVGpbU2pYUGZcU2lZUWlcU2r0uywAAABcVGon+SApAAAAnXRSTlMAA/sFAwf1qg8M8AnWMB3muvxec20XEu3LgOLcsokMfKVjTDT599N3JMTy7c+gIRj77Y5/Zps0KBr18urf05hFQmtLPzs4FLiuWlDi2MCsaSfBc1pSI7axkVNCOygeD+fnzISBa2BSPi7MvpSGVsbAqnETx7SlnYZZRuGQeGZfSSBMOtyYlI+LNC0s3Mi6op7FmGUY0pMV1nocikHZfq2SggAAHMdJREFUeNrs3e9PUmEUB/AjQeuX5S0VZ0plXUys2IKo9XuWkQFrDQhjsMEm05U1wM032tr0BVtrbr7w5T1/aw0qFbm/5MJznuv5/AVsz+6Xe5/znPPASRWL5IIl1V/eWSoCc5tAbRv3peaAuUq6hIelCsBcI1DFI9QKMJeol7GTVWCuEChjZxFgbpBDPRlg8qugLn8YmOzqftS3Dkx2ETSgZIHJzVtCIw1gcsujoQQwuTXQGG9oSS6Fxng/S3Il/I+3s9xIQWO7wGQWQBM7wGRW5wV2tzByRLtaEU3sAZNZFhF5K8vFCsifSa62gv9w0d+VYmhiE5jMttBEDZjM8mhiCZjM5tBEFJjM5pCrSa6WQRNpYDJLYwufnHWpCprgLjS5RXmB3W0JTeSByayGJraAyWwTTcSAySyCJlaAyWwV+Vy0qzXQBM9jkdsGmuAGUrntook6MJmto4kAMJntoAkfMJlV0QQwqeXQmApMamYLHAImtTga8wOTWgqNlYBJbQ15Rsex+LKxWEGCT4wyGksCOyq/EVTwDyW4R71eHkRjQWBtvNFtPCAZ9QJhSTRWBnZYLIhtgpRLqgk0tgbskKgq12jtIC+wLRHZejDX0FgOmJUzintU/4iraGwD2L4tBfXsEF3hTW5Nss6XNMo6mh/FW2iMyDjherFIoDBdQyMpAr/wKG+J/Gfw8kZZxT9KuVoYRPKV0FCZ5OmXVdrt395oEvcpuRiIk0YTSYonFMMq6iuJTp2tIB6mrAdAlCqaSRD5RzskQri9v6bgEdsrIIgfTZUIbmr5yqgnBWI1sJNQHoQoogV+gr1cBb9e4IRBAPNsCcVAhDxaESLYb7sV6hw3BRBqDvUk6iBABi1RCc5EiCXwqGQWhAr7ic04zqA1ShTICeewnYC3VRvvrMvQO+YRLeN0wLkgHpQS/q6QRiNx6L8s/iflBNfl3QS2BBviX/bDfnJbqN4QWrZLs/QQXk6nMzESG245gikYR+uqNEsPZKQRkVxGR9GGeACYUUATPJAfaM9oCYtLROQQKba1rqIdZe6dNwpoiqMl6iU8SMriEgWtgKZ4EiGDtiR4go1+QNOcHbKBtvh5ypjufFSafcveKtoSWgbWptgKaKIdF94dtEUlWFwSLI5NVI/zevdsrjD17rSeMQ9oatWGvyJoi5/fpQ8qhtCKbS+IU8NOyJ6LoSWOTbTvgqkoeBBfe+H4dm/QB0JlVGyhHze0/Ato8mPo84d+KF+LYDOgJbjTOOZH66rA7AT0NoU6TaGEloU4o+0EtEJjdyi7jf/xVHWXBXRTOIj/8O1ibgvopvoa/sVXuFqQlSqgmwJxbOFLmC1IIe1N6E58VX6CrVpCS5JkArrJu87/wa4N6JYGv0Vb4ZUxoFsi/B3s2oBuWVJ4J8tM2GJAC++Y6iitEN2LHjh7ZvTNyMjo2VMg2C5a0gCa5lQy1aSBe68WrkzenZh5Nn7ulrbv3KULY0PXF699nxocgb4Lq9YCmmy/z3JIeD144OHUlQcfxj2audMXJhaHXzyC/qnJHNCmxaU49Nip+eEHY6c1u87NfLlx8zz0w5rUAd1USKCOUhF66M2n+99uacfn+XV/4SL0WECVO6Cbism+T4w58+7LM80JT+/euA09FJM9oJvCa33tbfg5/dmjOejq83dnoEcy0gd0k28djyhnoQcG5ievas7zDA33Jq0r8gd0y1xbTPtrXnDe4OS41jN3rpmEdY8WWJGji8uXPpDT25t1cNyj6Qtaj41NO/0cZyQdW9NRsbKRS6Xiu9ECOG5gasKj9cPQ5bPgoBXy56BJGJ0e1/rm8fObDgab6o6A7qnBB6e1/hq7cR4cEndNQPfKq4+aALOTF8ERFQ5oQz9mNEE81wfBAQE/B7S+H2OaSEMvoHsRDmg9r2c00b79gG4FEhzQHf38qFHwreunOK+gDlX8YFRhRr94NCI+z0N3Nrl7ut3A+1mNkLcPoSsNPjJ+2M07Gi2exVHHr9BRT+zze3aRTDrvmx0ecPQSLCyf2APjU+MaSXfmoQu+pQQekKyc1PPiZ+5qZD3vKqe9+d1kM6mV4F7+pC4vvHqqEfZkAboTKMRihRP87XtqUiNuYgTYsd0e08ibXQB2TJ/OaTJ4+wbYMZy6r0ni0ktgto2ILyxYNym8o006g0Q/fnX8ugfMjq+nNbn8Zu/OfpoI4jiAf7vlKG1p5SjlEoqUU4SEwxLuIIKAhBhUjmiiBgNBJSAJL2JM9MHEGBMffPzt3+pRVLbd2Zl2utN2dz+vPtiwx8z8rr05D4+4Fio7Wic8gnwTVI7aA/CICLVTeQp7C7GIpmMqV9NL8PDEZql8JevhsTYZprLWAo+VSBuVuVc+eJiGSzo5KKbai2oxTZb98/vbtRp4TC2X+fr71wPvCpsKlEH2V8yAF/IwESqn9BHHsXeFs/jukYMce2/pTDvkKEcheK5qIIdp987DV+2S4yS8K/xfbbnl90XswHOpyREBjiyN8Pzhu0aOpN2A57eSb1/I11QtPMAaOVar19gCREqqd7/ABrzUks9BEUoTr+B2L8jZ3F7EM08OV+XujVagvDpU8hF2dd6hhOczFMwE3OsGucEbuFVTlNwg6NqOhwS5wzW40wK5xXu4UciZOSQzUxG4UBk2AXsv6Rz0OzHJ7wW0/nNoEpgh6rpCWvfssFyadXhA7qK5LCbttgeYaACu4uwssBexdN8DTNTmpuoOd22h3VdG201uNO2ezHA1uZJrJrT0kzsF3RLteEUu5ZJ5lk2uikJfddMdq7DjeoHF9cEFfM6vpGSKuuEs7MBmby9t6Pogx19DcDy3npEu3YHTObYbWEw1HM4/Ta6mOb3+rvTavY/e300ttLSSJS/YIarUBtq1LuAPf4tGSrTB0ZaTVFJmIvhrldi8bZaoRlIm2fx4YIqsad34b5SUuAUnOyZFoo0BAP7dWbKSwBWBKVKhysk5pQgpMhBDmn+CLCzl0K3sRbNKKM8QDghVF8zC4A4p0Q7naiYFMp7MpiCxNMCojVRINsGphkmNhNggn6omGHWSEl1wqkZSYmoSV01qnPtAfIvg9RqWRCKpT3CSwEKRfqDm1Hd0k0Yc9lSYdwvHlFbJgreP5lklJW4g04Bo/UwoSGxeSqk0pmK1I8sbMqHFkG2OVJhyaOVOlBRI9guWgVUXsediAU70hVS4DhN9lG0eZmZJhetwogZSoLVGsBR7xpfPj/RKsyy0kwKrMDUnmniPaaSCEw9KviDZbwDmUpRBmyzmbUi7cJ5aYlIwCeOxaMR/jSx4M1mKHKecA8sH3mGZXxXoLcJFbwq+2QSmsHEv5gPLKCmgOTDrP0O22wTbpmgvdi2pMA+niZHthnxgq7lJV0Qkk9Ze9WwxprvfEW6peAzOs87mlXUUbbhsApYimuAppSlJ9ovCae6Rzaoiwru8qB9FnxETQwFVjNxeHB/7sb2xsXJ+egg1VNc7dSJDgw8GS8xQcCjzSMVWUrusjid7WxfvTs7W6/Sr1sdGoFwNsdiV5q/V1li7p34Y9PfJzCBQP83h7eHi+Nj5Su+gztIzVgnF7pLNbmTPs30Ao3pKO4LR9XARvrd3K5/ruv/628b9QV1A7xOoVU/2emxWPlILA3/UNCHhj9KS+ib1r8jBo/2T3h49J4N7EFYGH6FMpmBU02rylHTSb9P+rKEhE+qH4U5B2OKGnoeeA3CVT6DyuukNlYzBIFZFv4xm5yGCNTDoIvvFIObwTM9P/CkUGiI7RWtg1J807KwNVWEpk2r8ehjUVJHtliBkvEfP11kF1AmSneoZWd2oPzvOPGAWgTlSXx9YDxGvdQnjUCZAdhpAhg+sv+IRUb3pmWhYeR9aJwSM6TLWK8FRJtn+bhj5w3SpOSudHwyZxshblPehTYDvoS5nC5bKJdUwgQwNzJXO1/bK/GU+41Pdh/YYXCNxXc4KVHlP9rm5DKPJKXb1c0MtIwWxoLoPbQhc57qknkoo0kn2aUSGWxZzqfysH5ZQ3YcWBc+jOl3WARTZIdvM+mC0lEONuW+GNTpjlWym+cDxWf+jLPbRCbLNAox8zZwh3IzE0XvVfWjL4FjXpY2Bq9Q7g6t5y/2mYJb6WHUfWj+sPdHlvQZL5duRp09uH+wtPtwa378Ye/3u+7eT7ZWN573rz+KD8d7ti0Pk4iuJkU/zN02TURhp3D6GlOL8VzesvdQL/QQf7n/f/nUJP63HB+t0rvvjlRAWJpt08lf7D2Dqs1qtw2SveW4QS94+/hkZW9dz9Gmx6J2jbSEYfdEo0zXBMpOoT20f2hqsfdfl7eFS5dignod3FWpD0fw/0hFlS4Fh3rJmYFIjW63C2jddWt1bpD3p1fOzXQkhSbLFNaFe/jnBHGa12j60Llj7oUs7Q9reoJ6v7QqIIFtoKRiFWtnzsPijb5PLSj8fsglrFwVbgg965DbifH6yxahg8XWfYEd6o9I+tEZupkFWvCMdEYvrEuo+Fq2mMhqA0XAVGXBazcK88PAO2akB1kZ0WRf4reJMl9JbAa4Q2aFeuLj+DdJ4Od9alUnOBnA81+XcT2+QxnVJD4t0gb+yN8WZjgXDpzucPjS1F3hfl9JzmD4gPdMlbahag/lpfqZusW9kTvsVNq03gqNDbu18WLCA2Ah4fCSpeWI0McNN87MlBCcO7CrsQ9sEz6nM9X2JtBVd2ktwaSSjuj/9Cp6l/4IxGMWCxKZNik3EaldY7dsFnor8V+Fne0jrqNOl/QBXsCDvslA1YwXjF0K+QIYloRvhA2VSFcmSOuDUfRvBpQNd3op0LFr02viP6VLYn1vz03RI7H7I7EOLUpab1+8GQqnGsHyYle9jj567wfND/DOuy3tua/PojN/s4DLPSPOLvhADVWQqzP3UYvsy/vB1qhhY+TGu56Ln08q7xQ5j4a28++BqLlSf5QNGmr+LOGYF5zTc5UxQS/gKNeuhFiIenel88d6V87HxxcMRe5KOZ7ZWdHSb7H2rhmEUmCaeBZFWGm4f2kyoYFuwYQipOI2zHtf1s5PPp1sHjyo5pfOytsFVXajSpYj5FKTRHDNPC8SSWRjfZfGm71czr7Lj9LnJ43p7BCLGbSr8KVyBUwQGzenHyCilkQEvXhmaJaZ6q8VaCxQs0pVEDka2xs5Pzt9d/HpcO5CTA13eoq0zduazq2x281oBpu7gUqid2I5glLD4xwnKXysUKMg5eLADXJsFywmmMv/K4olbraUmfQQeymVtfG8RPx6VCc5BjQ1d1jd7e5NmYBTWvsAoNEOCpu519o0OkbUWi5+e8V9Xl8EotHFd1m3wdRfuOPFix+YZazMwWLN4rbaWwUThjrgu58TuSZUtMEgFYBSposJaYLZVzRXwKxR9UORU55OfBCFxEYZUj/9IMHfKawUsrF2FIpW98ul+vlnbIgLzVGhairEEJ2tgcCSXzlblcFC67Iev3a7SB/8sFVzz/ws5GWVX6QY0khCAMg/r9DzVXYBL/kDxQPmXAgYiSKtts7jTdknCNBTa6tHzEl+EqC7Kn7YMpliQ7DD14osP/rtzSasWiQmSumtVOniWz+N7/hbClmyqfZggu1T9ZO/eepMKgjiAzzkY2gIFA6hcbbEoNLQ8qFVCpRqliFXTkGi9JCbaaDRWGi+JL0p88MHENCY++Djf1TfjGgvsmdktnDO/D0Cbppyzszvz33V3REWeQ4INsOr9R93H9NNv90HDSTPx6Eto0R5nU20aLHv1Y/Rz+uypp7fvPPtw9+2v55eOWbyZMjwHh9hHi86AokK8f8C60/c+3bxz+/bXc8/u3nzw9uPPT28ufH538cW9649fXnp1/8n708eAYMfERWEltCgcBUUPp2QRPdxExM0uwn/VI2gHf5GUB78h1RSREPxHNY82pUHRl0vAFXXuuIPOQhOtqnLmlabAdxKMC9jOTjfjol151lSKNvhOlzMWbgWte8hZJLlR8J0KUmwSj4DpvnCGMx6A/7SRokj7/vAXSctyif8/QmEkiJHuMuVP/z3pEvdMfOg4UlymnE7xF0m35Ppg5kjhipfM/UktkvbBjzY5lyXOOloVY/3xWfAjp4YUDcJXiD2xaQmlCubujtsmdFrTXeUs02oO+FKJc68/GkaLwlHOeORF8KcGUrgnic8DxpaDDuJUdMzadsCZe5ZEi7ZBkZQiycBu5Qxtq4FzWHuR+LLxq8us78HjaE2MtR4YgG/FOPf3ttGa85wVvdsB38oixRphzcYaiJOVJ/QhviPFukNYs1E0Q5wZpSXwsRZnq2kFLenSZmFVYd+uoZUDB540B0sGoEhKu92h4qigpjmgHXHOLZYt8LXXnOFwRbSixVkkJULga0mkyNLLFXp/TVuadYaYa3JeqpxDG24wzmhgFXxug3PLcA+10ccqVqZnLPgoLHEOBFxFC2Y491f64HucX4BQBM0rgaIkS6zhBkjgniAe69B7hWakGWu4aI3x6/QIjVthfGiET0AAnGdsrZgLo2m7jP26axAEdWRMcyigaW3GzZXLEAhdJOhbDnGIOHzHJV0IhjZjR2LHRbNmQBGfjvTCI7bPuO3QQ7OSfDXADgTFI8YW9BSadYLv9bIJQeHE+CLi6mhUBhShpnyBTZ8pJRzCzhi1SLomb+CxOHm+J90CmtQGxXnp5BhPaUrSHGoOVw+J6/tzQra3cIxw8SWxKItP/h0ck6I/HWkOSa5e+2YgdqH/4hDWRguEfRNakVQg/M5B84VQulhLczjgCgpKzEHgEGbH4rZS37NcDSRJCJ75KUhz2GR62y9DEK2ypTk0UQNhGComexw6Gs1JT3NYBEVdzvn1pLheabfQjFs8VzRFfDwQPFQoxnRyPlvG0eiT2jvTcsHKxLjGleawgybs8wQ3ZXyaijWOVaY0hwGasMBSubvzEFydGnqzaiPNYQkUD70ONQdZiamA2Ud+CYfjUCMXwD2sv+1MbprDKiiqXu/0CrZ4k+WKjCry63MUSQUIum2eNIcWcnNPMjxrIg0IvOMsaQ67yG353yJJIpO8adQ4DnqWkNsCKM5I5plXtyYzzWGeHibQrIPwvN1R1alS6XetXZE9Ss/m8gxpDteQ1xo9dK0X4D1K1VKZvghyasjqEfnkKxysRtmh0gxpDqvIyZ0lr/W3QfwxQy9BtpBTDxRzZVlBk8zGUFvB5DUsFep/TyQO4i/fw+Q0h67BImlDtjiokuTN4iTyyYEqJ3vQR5BxuGjuGpY1YlL9etAmVcYQ6lHTHF4jmy1QpOR+YAYncsQ0hzRyKc/R/nU2QPzHfJj2d4wjl9egmHVRSz7gXRyH6hObajLIJEUKjXGDk7aia3dC0hy+g2JNEkeZODOkNIfvyOMKqUjalzOGw0Uzk5DmsEGZg4zIIfAwjRwlzaGILM6AoiKjwIzmm0ee5vBvkdSTtCROZ1xCmkMCGRwnFEm5kyBGSBPSHDaQQcp78ebeAMEaCZ9mGRBTXfbeSbALYjSn6/lxGorwF0kJqZC4Rfc9zx8sItkeKJakQuLXyXutSvrsRdKCVEgGVGs4pu7w5il6esCyxvm0GNuN8lGlOex4bSPI+/pqb3Ylj2fzAyRKg+KWnCEZct7bnPYJJKqCYlXiRg0J9bylOSwjSR4UzrrMqZjSSHhKc0ghyUNvRVJN2qD1XXOPIM3hCyiyY68EhL4sNc2BXiQdSJedQc6ylymELOPtph0cS0y67LypRzz0QM0jwbaXaYlykMPsLFTDLdIwvqruZWs7BcKrgt00hxgonJoMitLRM3hSbJd0nwfFpswhGVfykOawznW1aVbmkAgYg9K40hyaIVBkpEIyrx7GkQZM17AU9Pe1Y1EQNAvaR3zRsLUiqRzMC1VYhWLancwz6E1c+2MqIMiu2kpzaGkXSa/lDIlDwVKaQxEUbYnSsaRa1khzIGQUXwPFrnTZ2VLUPeXb5iiSVmQOyZbZdc1qtIEedDU/IxHUG80MSOumORygvgEoSrKFZU8or5nmUGEokmQLi4A9Fr5Iznde0RtzuiKH/Jycll43JMSoRdKNkUtuwWlLMxmniLpuaH3AHgheGb3G801qMGJLss7sOoPDZYgBsTNasXltENxW9BbBe7SA58GIXmzBbktvauwq6mmAoisraOtaWgmioQipSGoO7+wRBiRNpjnsalzDtArChFAOh0pSMmLb4w+vJiQLy5C0XppDGMdXc8bfJ+mDMGMuojU4VuAtkhK9tcrW5dlZudDMnKLWDGcJx5cccp4c+c3evb0qEUVhAF+VEkFFdIGu0A0qipgJepiHLkMR1cM0+RCBoJAgWIQvHrw8mEKFImGoVGaH9a+mZNFUTjOj7dl79f3+heG451uz13eOnj724BwaOBTYvzNOm8O9GBd3jvzpj//83vunztzB4oJCu2MdpI+TlpruunHgxeFXV3GjTrk7sb7wHEILv3FuxJkgXt2OChVIungU3tYceXwdfDs+hB9jXewJL4Q/97ftQLwd6+5mnIHjvhWBGW/H+joXq83hxHbAzhNPnh6+hbdjrV2J0+ZwLTiG2kWgvcNx2hzu4qA1zr3zcdoccNCa5/52GDxR4z1c3Xdz6foFLHQab9fl33PPld3PDp7Dd3ghrv+Ue/aevPboNv5qZbm9PXf8+c1DZy8i90i048LLfbi3CgARZfvlT28I5Mn43dybdy2eqxJIMp6NPtc+WvxDnUCEQq9R2qo4/Ksygdmyfjn3ulrkFaYEhsp0mu7bdwOLw7QIzPMh3657E4cj8AgMku0vDlqbo8sRmGCRe15XWxzbjEBv05n7tvbF4mSsAoGmCvl2yas4vJYJgXYWA8bhe5s3YUigj0XuWQwYN8gl0ME4P/rsfbR4XZhj6abQC+SejcsTpCPrd0MGjBvjE6g2bs5zz8BiJT4QqLbFCmUIVHNZHZtAuR6r84VAuazFyrwnUG/CSjgTr94kUG/I/5Y1qL11mx28X6Ulx/9Ksfo6V/azBKlq8sbZla1So4dPg3qY8uZYH73Po/yYQCcOb0Dr3Ztc18dBq6MKr8N+P/xU7uOg1ZjHiTgVr9TOY7qsv3qi3IMb7MZw4+QeHLTm6SL3yNb/W+7BQWu28arcgwGjDBkreNAi90hj/8g9OGhFmnyZ554Zco9YOGgBAP5zhV4Diw0iLbcm0KEkTqbzbWsCJVnirKhl+UxguPBt8bcEpvpeRxkKTaQmWm6Lo8FBnPjb4jUCEyxzD3aTxAnkngQ+EmhqnntKkeooUUVqmGXuwQK4OJlOMyT3JOMQaCCQe/CABfk19+ABSxGSe1DCIkDDYjWKBGlosyIDgjQ0WAH8V6z0lPmfwn/FSluXw6BN2HhTVqRDkIoBr4CXaBmGnBw+BxugzUqUCNLRYQXs97j3npoWh1q/hhR1PAlpXftuDd6hhlQPI2ZGDalgPmpIhSuihlQ2DzWksrmoIZWtjxpS4exouQd1PKbyUEMq2wi5R7asjQGjbHX+roUBo0RTCzWksvk4aAEAAABMUsB9aKGyfnmxloqNBnG+1/HgPrQ4hUUdT8UJDD3xCy3B6jqeNoHJFj/HYXU8WwSGCrRCrzLABNQ82X4jajua0yMwx7IVGjvf8izb0bBQKM5f2tFQ8W6szPrtaFu4FqKn2XwM9cXiBTxfiVzehNd4vtpyUYolXNvi9VgYUOqtafM6iujj0F1/wMnVsCisv0KNE3JyBCZwHU6i6hOYwa9ybEW8XRkkMypyLE4dXwfNUqg7HJnzBsvh5vm6aclE9pgMy0fbzkMTsE7KJKJpVTG6LXEIg4Dy6fiGrfIdR8vmIQ8aHEursEVuZmvaaMNquIDJlUEtJZlVhpbzLQ3jp/SCju8YGQUzAFSsB5O+UyKKAAAAAElFTkSuQmCC;" parent="1" vertex="1">
          <mxGeometry x="30" y="245.5" width="64.22" height="68.5" as="geometry" />
        </mxCell>
        <mxCell id="kkhZQI9KyQwzsgTlf-WE-13" value="" style="shape=image;verticalLabelPosition=bottom;labelBackgroundColor=default;verticalAlign=top;aspect=fixed;imageAspect=0;image=data:image/png,iVBORw0KGgoAAAANSUhEUgAAAeIAAAIABAMAAACso3KEAAAALVBMVEVHcEwAAAAAAAAAAAAAAAAAAAAAAAAAAAAAAAAAAAAAAAAAAAAAAAAAAAAAAACttl6nAAAADnRSTlMADRkwPkZMZXl+mrjQ6pqJjAgAAAzRSURBVHja7d3Pa1zXFQfwO2/0c0YyQ1Ict7aFmoVLW1tMGtIu2g5elLp0MRjcXcHIXiSLgFBLCK1LhAKFEChC7aaJE4TSUtyAO4xDSZviDIpXxSbCdiBZxAyWxpal0cz5G7rQ+3HfnZk3d/SeGp3zvmclbHmsj95799wf596nVERkzr1z81PiFQ/ufPRKQe0vTl0nrnH78j68R/l6iYhuXxrQm3mZuMeHA93bQxXiH82z9uBn6iQh2q/bgo+RlLAkf5vkxB9twGMkKRYtGq26KHG7b/PlVEhWNKf7iBdIWjyJBn+D5MV7UeCs+RA/eP+NV1/kFC/99uq6+SgXre/p9rXnFMd4+krd9r4O39PXphXXcK7Y3deZmvZdu5cU5zgasvQaVJzWvumLacU7nNc0za0e36Pd/dsFxT0yS1qL1P36lYLv2OEPViqjdaYaXTPTAP0UJje2Ru4mOhM86EUlI7JB83W/yz2wbt/5ZhPDftPU6nxOT/Rr2FhGkH4+6fg7/wZoKknhP8q7vecB5kWJR3vODZS9v3ikZMXFHjC/99GaFib2h4PtcNuV934TN5S0OO7RqqE/Xur1fAsIr03eDt3U3u/hnkDxyW79rnxUZ4x9Z7PbbT0ntKEO56EtrYdZF5mLzZystdY5kd2tzo7XcsfIuCpU7DVTm+bvoF0QKvae2qbZmDWU1CgZqch7jFfFik3hjOBkHL6LN8OPcVPJDZe44z7X7i9gQ7B4yjUWQgl6UbB4LNTFygvPTXp+quoN1xMlORb0pssdG6+JFk/oY2T3gs+KFo+4j67SVl+U7HCVxaAZawoXV4KElJfeqQ51ratKqSN7X94VLp7cYz4M5kSWhYvHg3ktNzmdFS4eCtJTLRVNtddY74a+kh3+lXW6TNiLjCVvEmAoHcnJT09nvbFi/8HxU9/jPbia8saL41bpOPu7OhHd+TX/hLzsdbmiR07f8ZZu/st+9FT16JHzmL8k4r/amvNu5sn+K07fDQrBNvmKRz3xkb7iUa2kc5m9+KEnPt/zO0M1yAWlHKYzgMOeeKpft/qEUY2e22Hdsd7w5vV6lmJm9G0Ha0qpEtPVmqzXEpX6rMDol5jOKqXWmU6XOF7nsp9Yf4qbbgMwL1msN9S06VbONCSLS2TkphWuyxe2Yr3dahe8f7csVzyiX+Itf+ZzU654gozcVNbXYSWKy7q4GNzl02LF3XIT07VmO3HGzE1TxHYh0k48Ym7Jr/CtoLAT5/TcpO8C25Iqnuiam3iuRNqJpzRxVatK5jj7YycuGbmprt/i0sXN8OEoUsUXA+KGVs7ol4LJE89RaKtbn92tEsTB2RGt8A5lsdc46FY/NnKV1Od4pntuEtxWH9Gf24x2skJLqnjSP0ohqB2R3efK9chNcvvVIz1yE8dpn8HGx61gFYNtvZvlHMh6UPc1MeDxdUzFc8F6eugkK7nzXJNBbiLeTbWteLRrbpI8X703Ir5n5CaW66m24rK3oaBmLMeIFY+7uWlYv8Qst6Jbrx+v7y2eThL3+hdr8UxnbuJZ1GUtduoduemGbLE6s21M1TOt27MXZ1aNadxV6WKlwrlpS6VBrK24NQupEJ8MHmK2e2YGE/vVt02+xywO+Bwf/QcR0e7vGW8cGFCsVOaFC88qzjGwmH1ADDHEg8apN9+OF29dZiUe/TiBtyJ8Oc9HnF1P5EUQrSIb8VJC777Y5iLOJ/a6jyoTcXLvlnnCQ+wk+E6XaRbifILiKgvxXILixyzEKwmKd1iIawmKd1mIE30dFQexk6h4moF4OFHxeYghhhhiiCGGGGKIIYYYYoghhhhiiCGGGGKIIYYYYohNcfvvv/jJPuLcda7irX3XJn9tnaU4zv6CcZbiWK9P+jFDcbyDU72jODiJY25uLLMTxz0jJcdOHPc0YPe2ZiSOXXu2wE0c+/yMEjdx7B/1CDdx7A+cYCaOf4BXjpk4/gFeYxBDDDHEEEMMMcQQxxMPX735nz8XUiT++d5Gl/nUiH/ozeDPpkQcHFLYmk6FWH+532epEHe8+U28uGZ38qYccS58VkBBvrgcXiBeli82zpHYFC8eMYoAmuLFHXvuC9LFU6Z4Vrq445SBVeniiil+KF1cS52445CjTenijhq1hnRxPXXijrt6Ay2XNHHHGThr0sUlU7wsXTxpiovSxTkD3BY/dnJsD5aTMyOwYtdwCRJPWW4LkCMesjxkTdDs7YLd0YGCxKP6qXKFNIj1N+5GlJ1LEmf9vvXnKh1iNbxuccirrBXz7LtERH9T6REr9dRPL/TZDoXKF4ghhhhiiCGGGGKIIYYYYoghhhhiiCGGGGKIIYYYYoghhhhiiCGGGGKIIYYYYoghhhhiiCGGGGKIIYYYYoghhhhiiCGGGGKIIYYYYoghhhhiiCGGGGKIIYYYYoghhhhiiCGGGGKIIYYYYoghhhhiiCGGGGKIIYYYYoghhhhiiCGGOF3iZ67/u5gq8XCdaDtV4otERKspEmfqRESPUiTee8nkborE7kuQUySetPhPRYqLEEMMMcQQQwwxxBBDDDHEEEMMMcQQQwwxxBBDDDHEEEMMMcRRkd/7TwvpEY8TEVFbpUc8REREOykSqwoR0b00iU/0bbjE1ewtEf1FpUqsvt+nSBGVqBBD/JWL27E/J8dMHP8DJ7iJY/+oR7iJl+N+TombuBr3cxa4iRsxP2av6JyTOG56yhE3cdwHucxP3EjipmYlptk4n/IjYihuFuJ2MbmJ6fN9k7PrPMXUuvb8fuIH7wYfwUycQHAQO4mKpxmIVaJixUFcSxC8y0K8kqB4h4X4YoLixyzE+QTFVRZi51A21QcpdsfyScQTxUOcP4w39YGK1dIhvMQHKw4GArGiVWQjVqMfJwD+cl7xESt16s2348VblxP+iQ5afPgCYoghPtzx7AsXCikSZ35WIyK6fT4t4mzFS+AfpEM8FEy53E2F2KkEnbTZVIjnrOfEhIhzWj+8oZTKFaSL9XnTVaXU0i3h4uP6WKuglEPtadnimjF9kCO6L1o8rl/itb36oF3R4rK5JrdORIuCxV7lhJ+bRqLOpJQg1lMTbSqlTkZVhEoQz+jiZX/Fa1auuNKRm6K61wLEDnXmJiKiLbHijtxUjqwWFCCe1MVn3dzUe3OgALHecDX944N7Nl0CxHNGbprShxQixZWuualnYy1ArC3ntQt60/1Qqli7xFuhVevNFIjXQgU3j4SKM5q4GLrJt4SKnR65KRXiUG7qVQQm6jleDOeqhlSxPx/QVkplje6I7Hy8ZVRUbYjvc1WNLuea+H51Ub/FJferp7TcNKaPHMWOnSa0x3bGmACSKfau67wxjtqVPs/VMnJTrwlrCXOZKz5wgvo21YLmq83cJHm+etz7yUPLMS0lV5ypu7tlQvO4DcFiVXKPvArlpnnJ4lEXWLPZEyajRqBCLf9ENzc+6SuesTjW8NBGjhpGbmr1LPbJekPJqWAVg+NFXjV2G/W8xN6dsOEeJhNv0/9X2NOcDk/x7fau5xrxJrN5i5WRmyI2k5jiRb7iUgD+oP/A4663JrnKVxzkpn9Gt3KuOJ/8frn/c/zBA/818tt86LhNbfLhjm/dJKL2v/ok2ElvFXI0av6PTQ/7+W/aThLNe2mqoaRHyet4uJ2vbfHiJb87nfihDIe7SQ99JTuCK7vCumNtHUPBcRvlhM4+5NEXfeSfS8k6IdvEZFAVk09HeioFfcuxYPVGclSCEVOWUtFYa+uQ3kLkrGjwCGlHLi9FLl4IiQm9azlzAMeNHLpY0EtE8kFto9jw1mn2pgFGif3ET98YC82DZUjCENlqcOyVD6zIz8iV8CF2MyT9hAzHqG3LEfv5zD5hCh2S3rUumXdxRXh+8nJT0FLNEPtJ68jId9zE4yS7ta50NFR+5ci8SPAodT61c9HFX8yj3GU3QZ4Ep2Sn21mU/h/eEyg+2fVyLpHciXpvtXW7a/tNN8SBj3c/YNXxWut2UdpT7G2nME+DKR/AidGHqqHuyENjNsUjjHNxlwmPGonseFV6Vy+e8H8ZtwSBT0eUtmX8DVPt82LAQ/Wo6sUzQeGblPY6GxQ+3Y/qjBE1ZXQ29VMHi1ETBUS0I2FuILPSd7uqtttgmz85o50N36tfdVor6fyC+43tvKZpeqWfjH58/O4l1uCjNasa5NARX3SN72V2roQkEdPS4XdftK89x9L79JW69UsasnXzvP/333j1RU7x0m+umq92iB4OHid58V70HbEgDtyvEsCpCAP37z8O1UWB2xbVl2OixFaFD18XBP6TXT47Jgb8um0KPybjWW7/aoC5AwktdnOgkvHMy+zBHw464D16nbX39n6Gfqf4mm/v93VYmXPv3PyUGfbBnY9eibyf/wdQgRscSd3emQAAAABJRU5ErkJggg==;" parent="1" vertex="1">
          <mxGeometry x="54.21000000000001" y="350" width="64.48" height="68.5" as="geometry" />
        </mxCell>
        <mxCell id="kkhZQI9KyQwzsgTlf-WE-14" value="" style="shape=image;verticalLabelPosition=bottom;labelBackgroundColor=default;verticalAlign=top;aspect=fixed;imageAspect=0;image=data:image/png,iVBORw0KGgoAAAANSUhEUgAAAgAAAAH0CAMAAAB8TWVaAAAArlBMVEUAAAAAAAAAAAAAAAAAAAAAAAAAAAAAAAAAAAAAAAAAAAAAAAAAAAAAAAAAAAAAAAAAAAAAAAAAAAAAAAAAAAAAAAAAAAAAAAAAAAAAAAAAAAAAAAAAAAAAAAAAAAAAAAAAAAAAAAAAAAAAAAAAAAAAAAAAAAAAAAAAAAAAAAAAAAAAAAAAAAAAAAAAAAAAAAAAAAAAAAAAAAAAAAAAAAAAAAAAAAAAAAAAAAAAAABeyFOlAAAAOXRSTlMAfjn7gAnw+AYD4fQq5zAQwaHraj4UsSNijVzGeNsNy7d0AtfTq5uXiEhvGDSmkrxXT1MfQ4Qcz0yTBVHyAAAO6klEQVR42uzdh1IqQRCF4aPcBQkqIghiwoiYFQPz/i92VwqqbkDSzu5295zvGRyKpn67QYq1mp3zjePOYAgKzu7bzYmbajx2I1AwLh426gX3t+LTJygErZe9bTdL6ZafAtaVN38dFdyPKpsgu1rdvYabr3AHMqnc/DgruCV8gMy571wX3Tf+BYRnq3n75VbSAVnxOX76KyrtgAzYej+8cmu52gIpN9w/qLq1cRRQLRocXrpEGvxBSK32fq/qJvgREJho9HTivLgEaVO765WcNzWQIqev/YrzagOkRe38ueR8OwJpEEcdFZeGQgsk3c5xveDS8gKSbHccdaRoDyRV3HPFUUfKti9AEo2jjiw8gKSJe6446sjIMUiU+87joqfPQdCquOf6chkr7IJEGEcdOXgD5S7uua5cTm5A+YqjjqLLzzYoP3HPdelyxjQwL+3vnit/HATzEA3iqEOGOihjcdQh4elPFE5B2YlGfSlPf+oVNJfwqIODoA7jnkukCmg2JVEH01DZ4p5r24l2DvJvGnVIfvoTzyDPpkt6hD/9iRIHQa+mS3rkP/2pEchvzxVHHZr0QT6X9Oh5+hMnIH9LejTiIOhpSY9W/D/xxD3Xgc6nP9EDJVvSo1yVu0LWNJQRdSQ2AK0RdeTfc/nyBFpNW1TUwUFwCRKX9MjRBmmOOhLbB2mOOhI7AC18+nWLT3+iyr2xC6IOq09/6h2ksufy5RA0w66WqINbQ/+gaUmPHLwq+e+SHl1RBwfBmMYlPWJwEJxGHcp6Ll+KHARR1hx1cBBUuqRHjFuEy0LUkdgVAjXc191zeRPiWfEtQ1HHDDwlqWFJjxjXCIigJT1iFMsIhKwlPXI0EYDIbtTxE14Ut95z+XIGy07tRx2J3cOqMKKOxLqwKJyoI7FHWKNjSY8YDVuDYKvLp7+iTViha0mPGL9gQrBRBwdBpUt6xNB+TDj4qCPkQVD1kh4xtB4TZtThSUPhMWH2XGOBHhNm1OHZBvSwtKRHDDXHhI0t6RFDxTFhi0t6xHiBcIw6/hPOIGh4SY8Yco8JM+qYz/Qx4QCW9Igh75jwDqOOJRg9Jqzm8pIdcgbBiwdGHXl4gwThLekRI/9jwow61mXhmDB7rtzVsBJGHdacY3nsuQx6xnIYdRi11DFh9lyGvWI+Rh3G9bEAey7bKpiNUUcoakjZsMeoQ7I7pO3akWA9pO2UX/0kK0VIW41f/yQbIXVdR3I9IX19R2KdIH3RmSOx2khfmz8Ay3WHDLw6kqqHLNw6EqoaIQPluiOhBsjCPZtvqQ6RiSbjT6EukY1jRzK1kY0DRyL9Zu9OtBIHgiiAPoiBhCVhGVBkERBRHBQFFOv/f2wYziiMC+lodboDdf/Ac+wUnbyqqiMZoXR92qmJhEwlGmClooeE1EnYaImk3JGwUAtJ6UlPgI1G2E/SIYfuGYl5IGGfM0SSdMghu0JyPDvSITWJKOzIeUjOwvhQAKd9kvXvSRhaJvzikEHl6nkDaxMSWzdI0hMZ4lQy0yGw4cpryR0rJMmfkQHl6kOIHX0SMZcJpzcd4lQ6Ad65JRH3IpjOdEhhPO/hoxKJrSska0DJyM8GJXxBmtZ35HyoSFc6pHD92JNXUpYuEw67pFWxf1uSZoUYnpCwIE8a3biI1JOLoNFlwmekURUKZiQ0LBMOFlBTJX3KQ4t+iabDORiEf4f+t30ocUekzxTvyEUwwt3Ph/5n2k6sCbSlHGmTgQKJKe+oDdmG/udL5tMhbSgYk2BYJuxnT94N/b/woeaedHFCRJuT2MowDv3vQI3XJl0eEC2UfsUd7e/s+1jRrvhF4LlGmlShQJrWdzgNvqH/6kVg4pAeZWlYjeshzr6PEVdBOSFNAkQLSGxVOYf+5wOoGc5Ijw4UyNiKeA9Nb6k89P/Cg5pGgbSoQEGVxFbAOvQ/A0VZh3RwQulT4XtoupPYQ/+dwHA6ZC4XQaaHZum2X6T4Vp7ZkfJjKGiT2PvQdF+uu/RNJ2bTIQUoyJD4+qFZGszyFIGlCARF0qCEaFMSnz80e4/XBfqhlWc0HTJAtKFcBD97aAadipNs0GxM/GZyEYwrABDOx2Vi4kyhyF0Ru3xP1lnENACqDjEaeSZHyj8iWkMugjsq7E07N1A1J3bXUGDHvAJLOD2gRSr4iwBaxK0LBScktiaAe0mcLl2YS4eUEC1LYusJQJa9CBhLh9wimm98YolN+vwDHJwsVC0d7j9Hpld+Z3a8NyIyUgSQIV55Vy6C8eTwV+AQpxZUDfvEa4Jov0m8yWMjw14EDKVD7hGlNJjJm4AP/wD+BXHqulCVzROnLvYJ52NpDvo8FlbKJ3UQNY/uOcVXgk5Fjv4HIz0pHecXYCYdUv+qiVW+Au6fFeS3TRWB3iUxan7axCpHPzoWeFokTveGRsoX3XdNrHL0VUcF1Y0VgXNiNPmviVWO/n41X9sElW4PRtIhrbcmVnnlG/NBvcgRp2socy+IzeWmiVW++aoJdAb1loCJdMjgSlYDfPcnc584FXrYkhl+FvoQ4/5dM1UEcEMicfe6P5RNoMyX2Q2Ju+zpfi1X6Fk8Uv7oFQN81CgTpzHULeXOnijnBZ951FMEZH6LbfLzRAJThRDKhk0SSckt8YXQXBEI5WN9UioLfGlCrF6gbioD3RNRq/vYY2ysCKBOQrtyJ8RevQJxquIfiWxboDyeeIiyNFcEepckdHEqmcDETOdyiFjpEKFDYTwPocrtEqc7vJK2DSO2ezQNjfJ7xHuy3U0F9zI9Yx/nyg2o8yTMscW8R1OdOzJXBE4l0MGie//i4tumDnGaI4YXEj/fo3mKnznhLgKSDknKZWvi4se8FXG6AiQdkoBis34KBvztgg+ApEM0G7WWHvh0iFOtgRh+STokplyzvgAvv81dBCQdosnq5pcHfqWiuSIASYcoyl2dPUOTW+JU+40Ywi6JKM7F0y8f+gwrxKkJSDqET+3u7Dd04u8ZPwckHcLCaZ9kfSSgrqsIyGT37ytXzxtISp84NeN+kBAfQx3TIRL0nDNYBEryWejd0X8IkbRz4pR7xhtZ88cR6tCvabAI4J7ENs9lAH/P+Bni8GTP3ybUYdSDySKwOO5JP5s8l3F3xKmPWCZH+1loHeoowQqNssEigCc6Rps8lzVeiFNugTj8GR2ZTajDLlXiNAMkHbInz+XBOsyN23VA0iFfhTrstDRZBDCgIzBqLS08+m+uTRYBXNFh24Q67OZ2uYuApEO2eS4f9uMtxMVTxBIcaNPwJtSREi3iVBkiljM6OOs8VzYNR/8V84rZW+CY0yG1v6GOlMkaLQLuig6F0z6ZDpFCT+xF4AibhtehjtQd/VfeymgRmFPabYb0pFmQN1kE0KI024Q60i5DnNo+jiQdkq900n30AS0rZgeI5zmV6RA7Qh1W9owXSzjwdIj5PBe3gdEigAyliF2hDjvbBQeIZ9indFjnuWwLdVjZLpgvIZ5GGkbKr0Mdh3f0NbULXviIJ2v5zwAL81zcZsSpg5huyV6WhzqYLHLMReAw0iEW57m4nWkoAikfKb8OdRzB0X/T5C4CqU6HpCDP9crOdsF8gLV0jpRfhzpSked6Y2W74IWHmMZkg9pd+kIdf9i7050EgiAIwA26sKAcnigCGm7lSBBU+v1fzCGS9Z9xYcj0btX3Avygkk6G6saXkfpUEMlaO8SVOjLV59ozui54VhfJUjuklsE+l28r9ekrPu3nZ/lIj1VX6tO5SBbaIa7Plf1Sh8l1wfRDIG7qP+TiSI9Rr96HgOGlYdfnyk+pw5ex+vQhaW3O9A8sdZxcz+8QmIsYbIe4PleOf9k1tS44jMVYO8TOkR6rlurTVMRQO6S7zHOpQyyuCx4wBIpl/cVSRwom1wUH0bH1pPwe6bFqGnYIJDcMWeoIJB56HQJFSas3YJ8rqHroIXB5wVLHIYyuCz5Kam2UIz1Gxc+Bh4BMUI70GOV3XbAbSVrRM8iRHqs6Xp/d7yS1VgnkSI9RlafQu5RblCM9RrUuQu9STlnqOJCJv5g9fpey0gQ50mNUvxn62X1WAznSY9S65PXtzf9P0+UmSx0n9XDAs7vft7cOyJEeq16C71Les88V0mcpxbP7TE6g0cU40mNVO/gu5byMcaTHqlHwXcobkCM9Rs2ug+9SLoz1uRpY7ZL34Aeyo6GdUse6PRlqQaAsgu9S2vjy+/WbRVUdtAA0anx7i247LyV1EAMgW+xdyrvV9KmsDmwAZAz79tbajfwd7AD0qoBvb8nIZwBENmBvb8nIZwDwJCOfAcCTjHwGAE6//jaqqsMA4ElGPgOAJxn5DACeZOQzAHAqbuTX1GEA8ES3hZ+RzwAAmu1HPgMAqqiqDAAwBgAcAwCOAQDHAIBjAMAxAOAYAHAMADgGABwDAI4BAMcAgPtmlw4EAAAAAAT5Ww9yMSTAnABzAswJMCfAnABzAswJMCfAnABzAswJMCfAnABzAswJMCfAnABzAswJMCfAnABzAswJMCfAnABzAswJMCfAnABzAswJMCfAnABzAswJMCfAnABzAswJMCfAnABzAswJMCfAnABzAswJMCfAnABzAswJMCfAnABzAswJMCfAnABzAswJELt0IAAAAAAgyN96kIuhOQHmBJgTYE6AOQHmBJgTYE6AOQHmBJgTYE6AOQHmBJgTYE6AOQHmBJgTYE6AOQHmBJgTYE6AOQHmBJgTYE6AOQHmBJgTYE6AOQHmBJgTYE6AOQHmBJgTYE6AOQHmBJgTYE6AOQHmBJgTYE6AOQHmBJgTYE6AOQHmBJgTYE6AOQHmBJgTYE6AOQHmBJgTYE6AOQHmBJgTYE6AOQHmBJgTYE6AOQHmBJgTYE6AOQHmBJgTYE6AOQHmBJgTYE6AOQHmBJgTYE6AOQHmBJgTYE6AOQHmBJgTYE6AOQHmBJgTYE6AOQHmBJgTYE6AOQHmBJgTYE6AOQHmBJgTYE6AOQHmBJgTYE6AOQHmBJgToHbpmAYAEAiAGAMS0IJ/aYhg+aRXDcUVAFcAXAFwBcAVAFcAXAFwBcAVAFcAXAFwBcAVAFcAXAFwBcAVAFcAXAFwBcAVAFcAXAFwd/87a7wHiaEc43zqHeMAAAAASUVORK5CYII=;" parent="1" vertex="1">
          <mxGeometry x="152.51" y="400" width="71.68" height="70" as="geometry" />
        </mxCell>
        <mxCell id="kkhZQI9KyQwzsgTlf-WE-15" value="" style="shape=image;verticalLabelPosition=bottom;labelBackgroundColor=default;verticalAlign=top;aspect=fixed;imageAspect=0;image=data:image/png,iVBORw0KGgoAAAANSUhEUgAAAPYAAAIACAMAAACGmGHXAAAAAXNSR0IArs4c6QAAAARnQU1BAACxjwv8YQUAAAAzUExURQAAAIRaFSgjIyolJf2hAComJv6iAComJv6jACsmJismJv6jACsnJysnJysnJ/+jACsnJ7GiD18AAAAPdFJOUwAYLVZYgYWstrzW3un1+arIhbwAAAw3SURBVHja7Z3ttrQmDIUFRITRGe7/avvj9O1qV49Awvew839GH5NsAkbYtvomldbWXf7HLme1VnL7ZhNKW/+7Wa3EVzJL7XzYrP42r4so8485/UU+V9anm1FfAn15mjm1ILT33l9qQejZPS6t55uZVdy0zzM9paudzzU7n8OVL2FqsQCfMtCF86VsokCXly9n1yyFuvRlTS5JPQe38n5Bbun9gtwE6vu+v4VbpJBYreSfYUnI54Wm/+j50ONYdLx2vy4cxRecvBuY2kTCOrBYJvU9a72m8qbQkcm5mlHOkhZMwuByvsRODVE9XXoH7tilOyo0Tddzhbgu9fjkTCGuiimjnUfFGRPH54nraGr+WJ45TnklnrivSfTM8YrKR+6xVE2ULqWfuN8zOPvNl145g7vf5QecB428x5dxXSOCBhJzV2WUtYOXqA95KOro5DClmqkUjXpsUasWjG5kUVPVYlGNHOWm3qzBDRzldz2XqHELc1lzmLmGjXJds6jQw1YspsaYHRy7zaj1eLkbs4Mmt6gbhqpmLI17X2JQTdOVpwtuzJHbVL4tMya2rTzCqDEXjq/KuSfHnHP/Jjm1R4r3kNjvqZ5rMWe46lnUfeCW1RXHrYltR6xXZPWpArCBDWxgAxvYwAY2sIENbGADG9jABjawm2AroknxFdj0z6eNXBKb/zZtcmzuvc6OzfT39Ni8Vw3zY+s1sd2a2H5RbAFvr4N9QckXwpZLYvNudnZs5keok2MzqSfHZndxDoStDc10Ro8o1tKADWxgAxvYwAY2sIENbGADG9jABjawgQ1sYAMb2MAGNrCBDWxgA7sAtiSa+A5s8mv9i3807uRNHGpNbG4bx/QNWmpN7Dfa6FfCRhv9Uthoo18I+14T26yJrZbE5m3lNzv2e8k2+pu5YDE3tuFOuAfCto5mRpc9wApracAGNrCBDWxgAxvYwAY2sIENbGADG9jABjawgQ1sYAMb2MAGNrCBDewar/Vvo1bE9t5fckls9ucD0zdoyTWxrzWxF+1C5LUhorEa2MD+Y2KPmfhG7P0Ts+MbJW1YbLUkNuszsPmx5ZLYtaciQ2K76hPP8bCvFssM9bGHXFQCNrCBDWxgAxvYwAY2sIENbGADG9jABjawgQ1sYAMb2MAGNrCBDWxgB7aJu2hmW2wTN2Q3Q/1NAQftXZFrYi/aqbRqX9qiXYiVt24eFvu9JvaijdV1N+GHt9FGjwGsE/a9ZrmilsReso3+Xf0YtAGxXYND7+pji3YnHGItDdjABjawgQ1sYAMb2MAGNrCBDWxgAxvYwAY2sIENbGADG9jABjawS2AbSzKjlfgGbEY3g14T2zuxJLa/xJLYzH2m5+9ClGtiL9pGf62JjTZ6ePvrsd2a2HpNbLEk9ppt9Mw52OTY3Jnn1NiGvUozELYiWs7KFNbSgA1sYAMb2MAGNrCBDWxgAxvYwAY2sIENbGAHTK2ILYxfEFvdvg+2Vx2pNaUJpiy2t6KXmF2+IzZ/F6jyWtYSO6NhNMOM747dPtCF8wNg+7utosu3HwK7raIrTjtjHeyGCa79QNjMDuEK1G2xGwmb8YNhs78AoJj1w2FzvwAgDFwp1M2xq3MnUbfHrsydRt0Buyp3IvWt2mNX1DWTRv1QQLCxHyb1rbh1WoA/XZ2NnXpl24/aPc8NMrA3yR9AKtfh0QI5B3vb1LvmF5ukdWGCq7OxHxYrK8/HxJ39rDOx0+Kt8PzbxQfO2BWzsTcZv4tbtJWz+DQoHzvpPprKWYKYlMAucyfF5CxFSopgb/JuJmuxlEpbyCuDHVm89N6/RZvEvtLksxB2fO5rm4R4ai1cCjs+NygS5lehGUA57Ci3rB7iyd+FiiOKfYpC3LZ2iCf6WhyvT4q9DlGEW9VV8TTq/fyk22svwS1qhnjKSk5CcP8vx1Nu2lacg4pc6WBAJ4JHxu8sVTOZf82DTgMPTwpdNT1T+UNW1nAma6may6n5xfnJs6i4qTo1qsoZG49Pvh05gsueil38h5nt6r8dLjLCUVRwtqqY1f+2nZ/euryzdfUA/6di5btGlHZ2eHg4PyUtHOimtLsv5ogtXp/CFuIW77LuVszHWJ46nOCqrLstb4Mx8alhO+9G76IFmmpNHeSWJUs1w5rd1KIOcutylblg6VmNvE7QtbvYREyzdKIidYhbFZt3O86ocNak/rxYY60oJGi6SW1Gq9dUIVHTjMe3f2rbzghOkqgxnC0+9U0w3C2LVGiiT2LH0vsqUakZ+p/snxZ20B3lSsS47BjiwfQuEOWKvpJ0NsJ+0UVY5+u46hriIXfL/Bdij/rw7lKepam5za1YJDle2jn7WdVUbsWiyerQ0NmP7ha5dbmhLi+0dPazuw1nVSRlLNAjOPvR3SovuSU1xts6+9ndecmtqMFyNsb+ULXcZKW27lugRcdulVWfXsRYOZpjn9TszFpFe1CGT3sTRIfJDEVzYwhaQNRMhqYpYmqfHbBfZW49qUZTw8T4U5TLDE2ztNTeu2DvxJE7jn3Tfnp0wT6LuCxFyO0QhWm4YtFsKZdEWehD/ZDcii3lxF/unbD3Ij5LwJZDYR+0DNXs8UsMM2oHRm72epqhCXknRXvSNMcduC1t1tmL+kHTLHeBhfa8RDfsvUSsxmcxZgpszcW+Sdh7N+yjhCDHtVBPga24ZRoN++iGfQIb2ExsQSvJR8OWwC6Crb8aG5IG7AGxu5Yr01RpAjU5ZeJpv3sGRlyf+Jb5tqH1Zn3L6goxTHotIX5oiySOjS2HGsFO2jgUbeOY5PVA6XVy4jtiMZSi8V9wS2KcDKVo1HfzCenhRtK0F/HdRrx55aJJ+T5Qaj9/KZPRzSAHSm5iN0NC1yk1P17jpLbM6KRXRE07xhm1dUankiRGihgnxm1Ory21wbhDlBe68zQ5HKbn9KjQc/qcIXbwDmOdoWihLvxB+slf1DBN+hJMULvwxRjOJt93ap1mxnA3+YOmtA/BDDXK9xGc/RzjiR+30j8kOwfIbPpHe9kfku0DOFtnjdrBcHnMkrO7swMfridSMz4KFt2drfL3IJH03ZRalWonXYfT9+K46P/RqDIXZE8Rdl7R9G/ARdcQ59wx6dnJnmF+0gcf0n4zF0Mg6qv58/aAukSMB/9G9gvzneFs0l5SrP/Ze1GHvETbKM5y9jGpy31wnETcFlCxdvE9esgZd3M32ldwwbipJ2sv1rhD3vJT8za+PJuLeDAhyZvSC+b2oWdzasXchpZa5Ib/7WxMLa5yG19GMiZY8J1NqYN7lHN2pLfc/zvaaXjYOxeDOrz3d+apfmXG6y2ywTTv+IGQu8NZszepzWIKxHJ21lbv4myR1lkb5vMeZWxsOBoEeNgxTGdH/jV2gEWB/YyjJ2y4Gs6OuDs6KB51XZ17e7xSLaHyEzng8cPBwsc45RwaFP7n+PSGLW0Jx2OpPJ+wh8Wk9GGBn3um8OQeCBY5LjQlksihngK9yXdmIGbIRmIGiT1d1ROPvRPhMHSZ1LGD0FKVI+2wv+Sj/iLUBY52VL7QFcR+vsKxnZyPMeoS5/RaX+7Jiv34hf11HjtFgmSE+ipAHT6ehlUOiX3fjx/b952sudHTicucPR49/Ln00e5ZI1e5o6h1qwsVcUK5g8ev2KVMM+r4eeuiXVylH1CcqTPGt8y4+NnuTRJcRsOucL7FY6tBgic8fFv4kjZ+SSd7B3jSocG0i8bjq26gqzvhBso/ePn2HR2e4uoa1ClyXi/DVdK1VcdrX+UvLl3HJ57KXTrSpfFdqZO5vZXNoasWitqn3oRsC125PE7m9i4/x5X1Y1BTuP2tc4oHoZ0fhjo9v3+SnOtyZSiXaTHxJXF7b1Rl5lbTfSK391anC5ykMrdb5EiqUxnoUpub/s/tlrSS5iW/FHBGK/mbzAmptHGs/3zLrZ0J6/l2OWv0HzPWXRn/5VpS0wayima21qYGoNZbe5OuM/Qtty7WN9CN2DqZuvtRq62fCdMJ2smtq6lltKy7w63cBjB1tRVwtQ1iLSVdi20YE63AjdyGMmmWSerG4E5tQ1pVcDso9M9CwSI5/X9xu75bvYutAE4c3Rlr3OGVGC23mUwWIJ+N+Q95zoqbm5L572hXLKdfRoltchOK5HWn50f+N3t0IfwyWsntC01IpbWxzl3/vFe5f1bNf39t0Mr+AoGnSEF/bPKJAAAAAElFTkSuQmCC;" parent="1" vertex="1">
          <mxGeometry x="70" y="130" width="32.91" height="68.5" as="geometry" />
        </mxCell>
        <mxCell id="kkhZQI9KyQwzsgTlf-WE-16" value="" style="shape=image;verticalLabelPosition=bottom;labelBackgroundColor=default;verticalAlign=top;aspect=fixed;imageAspect=0;image=data:image/png,iVBORw0KGgoAAAANSUhEUgAAAaIAAAIABAMAAAAyGXUkAAAABGdBTUEAALGPC/xhBQAAAAFzUkdCAK7OHOkAAAASUExURQAAAAAAAAAAAAAAAAAAAAAAAOArGaIAAAAFdFJOUwC3EHxGQt0BvQAACg9JREFUeNrt3cli4jgQBmBv3GnAd5OEOxB8NwHfMbbe/1WmO+lMwBhb1lIquf+6zjTkQ6XS4kVB8CSi0y4V6lEtD1nAKd52Qj+WH2w8kQnPp4lJO72mwlRUew6gozAZq6mBGJBKYTqaabWQ81ZaCxuxcAeKhZ3YOhuHUkuiKptMVXBcHWJhL7aTyjlnebcRNsNBvYuE3cgmVBYcFYdE2I6CQRNVv1Sjq8hcXfei5YdO5kfnneOe1C50tX6OvOVOy11qY7rcmshXDqcLptbSr+4mDqUVUJvUuKoLJvP96Kg2hPZ+ybvyMCcT5fbmlHfz38ZJ0pnuvmsXaXebdLXVBKBKu9Lq7CtxkHaWv7IkH2QTyxPkhHwCPrPZi1o96UJdu+3MU2LqjmQ/zVPajpTYX5RtaDtSaP/rYtoRaUOQEinp2jwn+LaN5Wr6rDDYW5HFlKUhoZhHRpST1ZgkIXLCpXlI0mk3hMWO5rtCwmJXkgx+CeE86CfDaSqq/fKd0nxVTle+idKhpEmFu5HC7tJlRjYgJURlNSSbfcdEQ19MNsRS/XaJA1FG1F/nZKJgIqIZVVUl2w6aUY180xOlEGkvJiCCCCKIIIIIIogggggiiCCCCCKIIIIIIogggggiiCCCCCKdeP+O7VREZAERRBBBBBFEEEEEEUQQQQQRRBBBBBFEEEEEkQNRdD69k8bhnNkUvZk6/kD//AcjoiQVjqLjDZwmREfhMPbmRVEunMbKtMg16OERf21RKZzHyqjoKBjEwqAoFiyiMCaKUh6i2xeM6olKwSQaQ6JYsInCjCjlI6qNiELBKLYmRCknUW1AxKqJfhpJQ5TyEtXaolgwi0JXVHITXTVFETfQt0BZFLIT/a0NyqKcn6jREvFLuu8XBKmKQo6irY6o5Ci66og4gr4MiqKEpejzbWiKohlP0VxdVPIUXdVFKU9RrSyKBNNQFsVcRYWqaMZVNFcVlVxFF1WR62nq6uPllD6ZrKqJUue95clluFpV5Ba0fz5vqRRFbudAzcM+1l35VhLF7nPu2ahYqImcLo7q3pLro+jSmytbNdGMRdJ1Vqi5h6L+cVFRtOHRjbr+kIuaqORQu7uTxUPRtb9EeSi6TFsUdzQhsm6ios3kap1LUdWfLBcP5wxZ78rTx1nQtneTbe7h3Pva+3dsPVzx3dynlRtbH7ldlc/7/oxMTeR2k/j/RsrN7TM43gv6OyStDe4Fud6vW/1ppZMwuV/nepe4en9PnxVCNdFGMA3lnfyQq2irKkq4ijLlq5ZMQZX6ddicp6hRFzEtDRd1Uci2MKiKmF4s17kvKOUIqnVELDvSXEfE8o6GQuuuzpRp0qmLGN7ScNUTxUyTTuMO9pRn0mmINiwrnY6I3fw70362peRYF7RECcsm0npGjFUjNSaeeks4NpHes5Ylv16kKeKzprjZDNd7ZnnNaaln5kn5nFlZ0BfxeFT+9kF57fczsKh3hdF3aLyy6kQmRO5J28CwyDGpKgLjoiBxWPHqLLAgCoKTo5JX7XvWbZpvEjvvyFFV52u3jL7t7YUyssG1Nd5fBxFEEEEEEUQQQQQRRBBBBBFEEEEEEUQQQQSRvUhv78mGCCKIIIIIIogggggiiCCCCCKIIIIIIogggggiiCCCCCKIIIIIIogggggiiCCCCCKIIIIIIogggggiiCCCCCKIIIIIIogggggiiCCakujl9P7rd7wfPiYhSu7eb7v88F2U7B7ePPvhsyg6dr7suPBW9Pbs1cMHT0XH5y89XmYeiqLel3gPZx47UZSPfBU6d9EQaJjETDQMGiTxEsmAhki8RJJn6NSZL6LjyNPW2ItGnCex8EI06mSWrQciuarQecoNU9HIk7Vq9qLRx1cumIsUTmwqeIsUTnOrWYu6c255ePlsv/Ou8z/PGYs6c255k1ZR16E63fWOh2gzvBCKdv0nr/ESdYytK6kpRcFV9FgW9p2TilSmkTiIYtnlwuO0YstTVEqvfx5INUtRJDl0dhbFOUdRLD2t7igiNUfRTHrp0+XPGIo2w2PMbawHWpSBqJTeQviK++pw4S4qhj/pvjo0zEULmY+KuYs2cns8T36DhnetK+Q+6zbvOIricTnXqndXznOGrpx7OZ/PL331bs55XvcwtLx9nzO6PDydOhSM597tHvF6W6WrQ/evUDFeH7XW2A9r1vtFbfKsG/EQ/fnrW0uIpGNfYd/xeQXXvaC3cza0Am8t1b8q+ILzLvEwqEXadd8NwFL0/LLLavgfcxT1bYHvfRQlqcJuN2fRwHWkKvNONLSn3/gmGr6OtPBLJHMdKfNKJHMdqfFJJHe9fOuRSO5SX+ORSPJqrD8i2Zs0Cm9EoaRo7o1o1nFx+Xx6f8jFizei9vXYw9+hp31d+eqNqHx2G11rjX71s43u10JHP0WznkFn7WU/Cvu2wEu5SQPX8ahrGZR7OB79/DlF37xc7iN4iDa9a6BYojAwnXvX/dU982l9tO7tJ195t/drVf573Kn2fftE1d63nZP2hnG7mXzcgdQLiCDSFUWn90M2JdGr5Pa9N6L12NsCuItiuR06j0Q/a/FqGqJQcvfHH1Eq+ZybN6J43LU9D0Qb6e0fX0S59OOVnoiiUdfBfBDFYy+SsxeFI3bv/RDNRuze+yFq7+pfvReVI+9jgAgiiP6FyjC96h2OudHEC1EyuVlQ0LpTcAKriVKp1HEWhUoTVc6iSGl5xHrnpFRJOtaiRGXjhPcOZKnQRLxFP5f7s4mIvm/Pr4pgKqKve7aWWTAd0e94Gfn/46olRBBBBBFEEEEEEUQQQQQRRBBBBBFEEEEEEUQQQQSRF6IZRBB9hyAXiamIQiJRpPDIkq4om5yosPo9icqzf0oRE31TTCZKiLKBKhdu89tuDZoR9dfbqtpY/ZqSapS4Gctrq1+TU43kt4/l0aRCbV1UknTZhCi575YTVotdOP5xU+bftSGbMtwOfTVJb91aF0WCYKQg+ZLHKmTx54sFXfG+TYgrQTeqCUQbgt8vJSx1d092FNaTjqDU3T00cLWeBtZn3q3SYCntopS0MEi/yNFIXjckopmwXIlyQbYR9NCRrKS57c/v7UhWsqIUxN3o/qGvwmoTNUSiUNjsSbmgHY1a80jz5W6t9ByjyZ+xMvutd8c6UCVd6xHXxtqPRZZ07UdcFwY/+SicJF37yeq9sc99FcJJ0j281mhvBUSwIO9cwMieOTU65ciG14f5fudB6wrxlo87fMdqbfg8f+FDpx9H593Is3esN9JnmvxSja5TUa60IOmDTNSDuIlkj89Rj4Ya1NGTPG+ih+O5DceCHiR1VJhyVA6aSOY4N/XYBk6inFBZsJx3bnLOZt5tA2exnkydezZdNhKrwGmUk6kK1lppFQTTIjEAtY5Y1yzb+4BFRDtDoGUWcIk3E6blR8ApotNOJ/mq5cFR+/wH8lvJbHdLPtYAAAAASUVORK5CYII=;" parent="1" vertex="1">
          <mxGeometry x="160.39" y="90" width="55.92" height="68.5" as="geometry" />
        </mxCell>
        <mxCell id="kkhZQI9KyQwzsgTlf-WE-17" value="" style="shape=image;verticalLabelPosition=bottom;labelBackgroundColor=default;verticalAlign=top;aspect=fixed;imageAspect=0;image=data:image/png,iVBORw0KGgoAAAANSUhEUgAAAgAAAAIACAMAAADDpiTIAAAAtFBMVEUAAAAAAAAAAAAAAAAAAAAAAAAAAAAAAAAAAAAAAAAAAAAAAAAAAAAAAAAAAAAAAAAAAAAAAAAAAAAAAAAAAAAAAAAAAAAAAAAAAAAAAAAAAAAAAAAAAAAAAAAAAAAAAAAAAAAAAAAAAAAAAAAAAAAAAAAAAAAAAAAAAAAAAAAAAAAAAAAAAAAAAAAAAAAAAAAAAAAAAAAAAAAAAAAAAAAAAAAAAAAAAAAAAAAAAAAAAAAAAABSe1G2AAAAO3RSTlMABPr2FvII6OTsEd8KKa+61yDbi7/EV1wc7iSQMsl5DkOdfTfRO5QtomzNU5hHabN1ZT+mhk9hcIGqS3xBtkwAAC8ZSURBVHja7NyJdppAFAbgC8gmsilLjCtq3JdEY2Lyv/979bQ9PW16aDPIYBDnewE9MAx35v4D3Y6GP95E234rOThuuPQsy9BNU1VNUzcsy1uGrnNYt/rbaDP2GyRUhebv4/7U6TVVZKA2Q2faj/e+RsKVqo/j0TzUkZMezkfxuE7C9agNF9NAB1d6MF0MaySUnB21XBOFMd1WZJNQSn7UCVVcgBp2Ip+EEtH2fUfHRelOfy8KxDJoDE+Bgi+hBKehWDB+JWk8CmR8KTkYjSUSvoC/ddoohbazFTXBZUn7lodS8Vp7MRFcSCM6mCgh8xCJiqBw9dhRUFqKE4s9wwINXlwZJSe7LwMSCqCtyvzsf5wHVmKLgLd9UpKSn0072ZPAzd2oiavTHN2RwIEWubhSbixeBXndt0q55GNltu5JOJt0vNqH/zd3JXaIzlPvG6gEYySSJNnZ6ytZ9LFQkhkJWWxcFE1WfgSCDUPXTVVG0dwNCYykaAn+ZKO3S1qj77HvmV8bSPSB1Kj5s/HwR2zc6VkK+FvGohhgoS0svvc9nJ+ehrMaZVKfbZ5O88ACT9ZCdIs+M+jr/IK8yePR1igXzX5/XQf8/lNfNAr+ZzAy+cQ215wz3PX9ds0ncmqKIfBPdQ63Xwk7sU3FkOy4FajIyxyJIZCm0W8jN2UhUbGk2VPiIR/zUWwR/03aGuDCW1HxasfOEnkYW7Ei+CBugpvwgS6hvpp6OF8zIuGX4RJcOfd0Gf6To+JcSxEZ+OneAW9yp04XIu2d8g/UMqtNZRSgfbk6q4WzydNbbxNJizYK0lzRZeyQQ3tx09XgwwQFCmZ0CQZymTzQrbqbo1jyukaFqyOvw22GB6VXFVmZ6yYyab9KVLA9clNfb/A90F0iKzfSSIo9ZOINqVgLcLAc020ZdGRkY5x8+inykMnbHRUpAQ/y9KYaBO8Gsgk+JCujCbJQRhoVp4dUToBsjCPdivocmahTmz7IPAt4GyqKpCDVO82yphoPN3KwdKUjC+t1kHbdY68c7wEb6b7/Xv3RQhb6iqqv9sYpSCe9WMhAfZSoCBFSmb/G6TLbOK38zuBRRwa7If2H9GQgg8mYCvCMVAH9MnSRgV7tSmCQIIO3Ln1CezSRwbpO3O2QqkO/dR1kkFR4ObC3wEye28RgcFLBTo+INwOpXuhP9kEGM6uqbWLpGczkxC+mnbi7I65qSNelj+y5DGbPldwY9HtgdrinDPwD2KkL4mmDVLJGf7PfwKxXwc/ORW2wcmaUUdcFu96M+HlEqgmlmDlgpcZULY0ErIIxnWEzATP5JBEvB6SaU6pxCFZJpQ4R2RMw8t7pTLEBZpMuceIh1SP9w9EDI69C36WPVLDR86SltZEKVvKzRjw0ZKQa/if/roONWpXcsNQBG+V5QLnUEhmsvDFxMEa6Gv3boKWATacSq4G7EGx295RbN7jsJLBFKoNTDrpXgazQgw4mzXfi4ti8ZCWQINWOPrHxwES/+sDgVgYLlV+KW+urYCSPJMpniVTP9Bmpr4CFvKVrpq3BZOcTC/5h055dSBhgRZ/zd2CyvuJCoBaChbEizh6W7MeJKYcu0vnEYmWARXi1LeKZBRaFpOGeTDByv5F3Z8tpw1AYgI9tDBizrzaBBBqWEgiBYJbyv/97NZ32otMBSQhLSO43k8tcGaTjo/+IiKQdcFFMYl5WEBFa2hE4+xDQnJISuTEEBUuSNWOHAfhGTQiIrbxh7OhCQCtPqry+KW+7DnFRi4SVWy743AXZxplBQH1KDPoGD+uDVGvAHt3gtZ7FnlC+CgFPeVIrt4MYd0MS5risQrcozyCgatWtMqUO+IojUu+9CTG1XGo1oO/QbUZF8HUsCo036uD7USIdyokLIYVRWjVgh25V2oGvbk1KZFAAV9wjXeYdVUmsIS8QKu7gg6swICtMY9MyTwsfQjpRKjXggST0h+CKrYiLnj1wtRzSKvqAkOA9jT7gnGQ4LXB5ZzJe1wVPcCbtegGEiKbFotGi1cZFnkNyzgF4XOOzgtt0F1r9b4TtHHE40+ePAq7rKA1OG346eATXzCEJ+qbSilNiKC93AdieSFp+Bq4jGWwDHu9AD1PaQYR7pGumY18o1iyv64FnQ8Z6Bk84ICl6J9N3ZbpAfNJ3cnBI1iAEzzMZ6gSeWokk6R1Or/cvpHlDiCsu8iSpVAPPiYx0suJEoxtAQHz+999C3CbskSSnZecn4Bs43C2ZIKpBxDdGM1H1CNrBtXAX2IAjMKaNtfAg4EeZ/nBOLhgUBM8/A+sqwaNNRxmVIQRMGpy5Nr7JnOT06+AwLCKyBke7RAZxEnwRW7MOHuR5W5JTaoPDjA31jy44dqbFGYSO4N0tOSswKEx1O9/BYdDo4NkFW0LGKVUhYNYGj7K1LwGba8zJ0NSzcrpl7UGLSaRoqsozZG5sEIPJM/X6w8oEWoR9krP3wBQbkRBpFMHkj8hU+TG0CBskZ+SDqWDAq1WpDqbA6IvQuz50aEYk5zUAU/3hY2P5DpiKho819d+gw1uZ5FSKYBqW6aGcKphCA9Yo7gCzDh8OyWk0wVR16JGewNS04YaLngcNEpIUNcE0owdagKluw/MnmjehwZkk5erGRoTeXcMrFEEvVagXRCQpNzG0ITT3s/H8v2xcKPdBij4B/pweIheCpWnR8ycaBVBuS4p2gTBHD+B07K///tJ4g2pxjhRVgp086bey/P3vX+UdVFuRtCgEy5i0W4OlaOMPo6svBAb3dNzNmheZumAIDO//XfEe4wIj6kCiSgAGd0paRQUw+Eb3/xkqTaj1SvIGPhgKEWnkDMHgmnv+J5HEMmYJoE8PDB2H9HmyJat0M2cFpSp0hyVnJlGbrln1SLqq+IcpLwJfFmZ88fq+Zfm/W+QDqOSX6R4tMPgV0qI8AcOO7NaFWj26yw4MkzLpsDKuJ2XPDgDU6C759sP7QUswNI2a/5Dw4kEtt6Qygtcl5RoxrgtsbADydwCVe0A+F1UGr6PzsnfYro+b52+nJElaX56+/pLkdDp92yzWh153//45mPej0jzAdXGDFHM6BrWjFBhDtY/BqLt+TlY/ap1JGLhI19AhtRJrxtXkFGG5hJSauqam09LRgPU+SaGXENe1Dbj/4149WC98IXXGxsVSUtaC/cakzN7AYFq6asiAPSmSK+A64+8w/T9qwF8KOVLjB/OQIwvyyIQqKbHEdW+2d4B/qyAblsSgYgOIrYuAXvaJbFCyCeyYZUc2LJERO0rdHte1KCO2yIo9peylyCgAMtAB+m2BrPhJ3n22N27DAACGtiVL3nsPJR6JYzvDC///f7W9XvtcWlESJYKife/ney5OLJEgCIKlKYg1LL4QRYIDPowhCLXUkekED+OBHgB9BAJpW2S6wuM44+PYanL+MOV7rwH61Rs+kDMI07OQ6X4PgUTo4AOxeiDKx0PXAPxih4/kQ0J+rOHDA7EfagoQVhuihY9cBPjrhXAWPpZQAxE2v0EK0O9cDXw8GxDAc5Gl9hh7gPZXce++7pZr41blup4/D5uXxeG8eXs7Ho+nU7fbPZ2Ob5vNj1Lx5vN8fa1UW2O+QuK+SZsDVOYWoDxm8z5KVarMh5fz6et91fM0yEDzesFy9nU6XJ7X+3HNMUhj9EB/5CKQUbOE6Si5Pk88rKcHhGflnHtPAZmHENNToksI907dHnKaIZOq90CkY3f2OhbB0kC4F7pE3Tbm2bpjq6GLnBQ5Hsw7Tm8hl+4jLgH94xi5KB4C/Klu0JRraw1k29/nSZDRq4VFGgCFCbI0NLpukPeXB7RPYyzWFkhoNYqeTXYJY+kK3mEcp950sWgHoLFDlpJPWCBTvaNpYFbRsXC6CUQq4p+5qYuJSneSDbSPIaqgAlQGBjK40+yBRTJ9cQc1wb3P4sd+8vqZT2RZ5BkAkrVUvxlgtVZg7P/bFuhMHcFDwARTcpS5xTjKTKUj3y9A6IgsE8jAdzG1prLTwMsWFRICJS0UOgRMkMNYydOh2rGGSrkBqZvIIcB2kEdfvRbh9ka1dg9VINZCBsenPyY3V6s+1D+r9vWjHgCxpbjiMK2MvGpK3Gb/N3/iYGbbRRMpXIBcBRnKmoR+afoZ1OAfXMyqfagDaGMUL7SBXCBsUzDECPeRGbYPDmY0PvTgh8DAv6l6WpNljQyhnCMyzg4Kpr2VMJvwUI9YU6tdB/A/A13MCqSKWQ1tKFK3gZmUP4OIV4lb8Yeo50KWIAFmFwZQmN0Ws7DmT/Bf9hhFCqcQj34IWHHVGedgbKAYoxZmoFe7PkQwSyiOUwdZ1gJayJoGRtNr+C/VisXqH5hBY9HjvqqTnzWCJPRDgGHmzwJ/+GtFt4e8poHcjPV7wlWdYljvINFH7nywVoq5/PhkYRrPPkikbVzkVjt7EO+pf4ffP4yQoaRBOi+xgWQQKpcX3NWQl/7xDslGDuanL0Gufd7N6Gr8YVB/jkqVCgV75FVamJDKoIapqHGj509POVeCA2QYw09dC9NoD4DetKkjp9aLRnGbtDqHKMf5ziQ0k0eQwRbTsE7Az6sHq1Vg2pBKt4R8jPkIeGhNpe/wiNTJdZrLdlNsKNlDFL4g9HaTddvR8Sdn+7H46kGsVRv5OAsTeN0clUtBubZyXRuSddKVl99cTMN9gTTs3XCLUcrzzhQYpkMdudSONmRgVjAdZVqpnJGhmyMEtDz4ptfCVNZeziYdRqVjQ4ROCbm0b5BVH3NagFRTK3sYWE/dbURb6JhGaQZxpocGJnE+e/Afgz1y2T+JW1nzMwYg1TMy1CHJAhmCiPVGGfNmhczPPqahzwfwC21iIAd9HUAOkzsoB/wuyD4UNXh+A++KqTSeWJVbfUxLfzXhH8sQWZIfHn5t1U8EpJ/Iy5DgnfMXOFqYSjNqGv8qI4/+mwZ/8bmCP/21DvlMdcyv5INMX1kXJHPePHKwxVRqS/gP84q8xgEAzBpcX39PkZuEPkEmrZQtJ2H3OSpa+VIC+n8GgZ2D/Izj9FXM109QHVG6boJQlTjwgtH6draRow5sOyfDIHDBbCye0K8OIpQxklVz9Z/dPsPq/HDr/X21iiJdtXrZgpFrpg9v7nkHgekeyVUC2oh6DgC+5039tI1VdyBTNUtx4tTIeAvZm4Gp1J7gL2aI1FpL6rRaB6L4ZWSpacCBKnIxpsB2wmiuBpH4Y0Ec+gD1BhLb7shfJd3jrqjfgESag9FOGUoJngXumjVm9TLSKndBHNvASGP++1VcDyQa8k/nUz1Pe9tZCdNxkZQ1sUGgHW9Ozeyr0VxzhNH0KfeBwBqk4n1g8fRXU86LtMzQXdGog0Qh95ZgJW85abePBWutQLAGd1ikbQs/H/TDgbdTmW9gtB6k1atikRovINogw5VcS5m94vk3dg2fc+HQBg5nA4tiREz+ZIvAU7bcYQskanPmgtZCVi/BFotx7QGBapZR0XOVyAZtMNoaImkuRjOBi3bRUb7aDAgwp8Uwa4OdEOQxda745UnYqLWsoWQG1SGEW7a9PS1U4pRAC6M9cbUafQNu9hCl2teByHPGC9NmSiSEN1yPb8ieAfjNyiiN0wEyZYzU17I37z6BNCbPPFSPWwPwm85RklcPyASZ1/MDPblhF702x+7+m+hu87cSStB4B0KH7G/xMPsVHvSf/41jzAogK2+O1PSmDZRa2adFz1VgCBikTwZq/Zh9AGUHgTmQ8vQcXd/PyHIEaWqpY5glyQaWt0ZSfR8odfIUeNplBYaAZuqU9IJjycjjq4SUTkBpneuP0lVgCHhPvZndThgrFI0EqkBIc+MyacnCpLv86Gn9lGs7X6e75GgXNRYqfwtXTG70A9K5KZAOvGIk3YfvZpSD1fda/vuZAz7zNl5uy7o7iL/Mc5byHEEdhHhv4Hd30YI15CgH5UwI30CSHka7pFvw1kAQv4Y0HCDTy58bbWHW/4N6IdhKV/o6BEE0C4kEQOUNo024oojsCwnSmkbDTvVBv0CQFVLpApU9RluJaLteAUm+Uj2BE4zmiYtFqDSBiG9wHLHnHwIGIIeXahyrYKSQKKC+i0zAF88pGf4h4Bkk2aYZghziEAAqSKUBROY8ATz/EGB4IMcwRfRcJ+9rMkYqugY0HGb0xKWdrXk3/UhWT7HpYYIoZSRjAomloGP+uxzNu0nLgjrJo0QNhDHwO/XXgZ+icqPb+PULvVry/N6m3m3XkM4SSIQYrQecOkUng+aJP16zqHctfaTzBBTqGG0MvLQGMoxAihNGsjT4R0D+AT1kUrQT81lc09djwV3EV4lzZ4f1iPzGI0BL3Ethu9mucaJOw3eS6oZacBcxwAgiUFUDlkS2bMMDSNFKyqFWWf/g910FdEXm70wjLolFr5mUQ3WZQ8Q95AE8IHAVerh3ThC/5F+HuEmZggDgDjKBBhCwLYxk2WL3Qq8gwwCjmfF1K4ZG+EYpvhdwE7yJW40raaRnxY8/m/gVr+K7gXsg8Cq4AvGr2DCwjZE28b/tKwBxUKVuF26H9cKKvsapBjI8x3/DrbgDhL9lRdBSeIefSaGlYW/xv44r46NZSGQAEYgmrDNkZRpFZgOfYpcBnpRt1irSKAGBmviHbY3RLB/oebEr6KWUeusD0liDeAFBg6dloZvCpbiN1G7MbqH6QYAzmYJoE4p4MyzyPrFW3MO3iA0R1c8F9j9NEGtMUXmwwWh6D+g9x21truMDHvUzAWi8DkCgHkm44RkFpgI2cfNnm1n8ehdzwA/6dQTCbGgKuT8KbB15i5vmnYSdAPW3A36o7kCQFk2X1xkyBEBuEBPo2xjNhh/uIRn4U3i0xTRYJeqV0SjuRkFNZ3/JA1nra9tBas7FpDvF9gE5LQqsCiizExuz5FWg4qmAXxnzFeS0pzolUy/wEoEWez+wKy3B4rvIoFIwwDoTavhkfTuHQG6NkbrsrMcFhOugJI2zJ/5T7iG3I3N9Se7CPp72Kqv3zkxHaazXFWR0pWtG5BmFzQEndravIqmJzdJCqVodTWQxmG4S1kU1gdqOXeE0llNsHbgoW2nRE1e706I8qNsAait21VdZypnbXgkLoFduGjAQXpzEfzv/CIh5GKnMrNjXQSizhgUpL3oiOmtiD0RYF5YLMjCKBeDLCEynYyRAMQzskLRCdldYaWAZI/kwkFASrFWxWKXLANJ5pd2y09yiWkaNWT93KaHYeo3Fa538PHeuDyCBGg8Yd35zCTv6ROAFlWDN3zN3Vw+Jl2PYAmJz1g5nJy47qWiLwD/Iu6/1VnEgAMBDxxg3wDbY4N5LnNixk+y8/3ttb2cRSCBhkf0vz7lJvk9B0miKhgV5i16xKXEL4ESJ2PsPiywQHcCL4N8YzipyZsXxl4oF9V909uRJ3ArfDgcg1gRTvZD+Yw+cxAZy1mwBwGiuFb8VDFzGHaAL3BwLPTYLe4eYgC92QfZs5CzR4Tehb2BRxu6sQIqx6Gs6+bGxMfz49Mfj98X+uHSAvwEpCH0SOuTa6SJncxP+5CwsLMzazBTqHSAGftqYrxH4dwe4OmOqEylVcS1nAMB4wD+5+yZyXANrJAZMqz8Tq8mkBfwsSTtPW+Sa32AWA1kFPfiBMkiQ2xoYV/FYpyO9w34KYl+D2tARGPjYYxZrdO4iC+sBadZtFUuw5j+ZOTvAEnhKkIGxGYHIvocdUppSKPwCaMQAymsDaWm+AwSjjYFlGF9DJ2MHsIGrBTJR5z2BH54+HIR1XmpFmEGbwa+miwhpaJsQMjgTG0tRg4/euJqUvRgZaf5UWKfGhFQJrUBZjocZ1CP8wX1bUaR26JBDGfaxJLWiHg42srKPojo1dqEpKB1ACTDLG/zDcmzTX9rJ4h+DQ5J2INghuy8HSlIxjUdYAJqYxwdypHn92VcxxWp8NoGaPmkid2Pga6JiAfZVSIuWJuF7ZHDqSsNSZukuX06droG/U+1g/np2gJFyDJCzK/A0vWAx6geU0iB83iwhC2CtYoa2AmSuHo564RQKa40jeXeA3goLOyn8G59ZhIXRgFJCCzMkLohlPhLkZgMcbS0s4eJyXwANiAQ0CDITzNDUQbztJkI+DourCZzEDSwlcHnfPSLC2cAWdwCMWlAJ9y1BTrTgc+ZCeXGEJQUm5wVgiFgAL5hBu0Jl4nEDeVET/6hDKSMLS7sovBdAhGlsYQfAIVRJOV5U5MfbvWyhKL2JHJx4bwEN3mcA3cIME6ia/tpFnqLO+z3kFhlj98L3EEj6d0ERwB08w/IUIV92ezJzgMkY+VCXPOMAFvdA0Dtm6JvwHOaxrSFv3tfkrNP36eKl6UABpOse71Dw/ekXQBLnLUABmu3Fvce8MVbfHZd42vcw1dqHInpRdgbAc/UmXRTC6J9erg5kuCFHP/F8DOpiqgjbJjAzD5jhDs8X+00Updnx39YOoUcgT02X23PwChIk6TvA6iTXBSDd0m+iQHZn/DILCdNjOfkEZlNMdYA+EnV7wOYh3wWAvAbEMg63z0E8JYTGytJCfilhncwaLGDR0pAsMUEqy3ETxWskt8/HdWQjZxt+SaFtzGCwHDfMFZJZIUgn/jxgTWk6t7TwHWZR93wOAOoVpNT7CFSso3dOY4N2cMJsPkPVI9kHSEt/dLB+Giaf0rAN+JjjyywfAbiBzN6whoZ8ikPfYUJTjptPSZDs4ILMAqyhgM8b/YTmhuK1IJePZI0eyCzEWtK51CPtYYD5oivFDkN2Bql9YC3t9m/D+/m6jrejnu64SrHHyCGckYL6KPHU8QlyS/B70IyG1fS6q0PSDzqdS7v9dbvt5vPTabMZj/0V6Y9zyePa0UayDshthP9nS+ghnS+32DHa1kFuC0zX7w3nHn53PXCR0iEEgpGBROoaJNfN6g4dDk5d/M6mDGO97bjADfAVJBdj3nwA/egn9QwX5tMAwENa2oC5EWgbZOdTHV3M6+QS4ffTZDwEL+C/lioSeQ7IzqafELN9nA7f7FOQEE7wDEdB18tMYJXdFdNpU0hlrj9uTfw22oRHPIaj4LzOBwDyj/8FGZzz5Ot7XBA2ADBBJtYa/ulc4whA1gyXI+RxZq+3bt13hEWBkb7aA/7m2EhkyR4ByMhij0yg4i7fNkGNT4cPwi6YbazAn3b1fQL4zReXBMbefbI7aFhDs2Kh0I5DUQbig/ymGr/Fq4zuk1vdlsEIAExk523hV46FRIkC8ntgOkuBosLZftOpzT3BJJSN5jIGOeUuxghqIBDVGMzdHl9PgfTrwCLMtKbhK3DMPF3UQCh6nrvZukt9XeyXmenVaVlI9AV18FrBFD+pM053hPdQOioS2fKHgH+1yot4f5OReUSLMmP9a5wE9octVjDF8R0lNvxxloSMrfXE8bPGxP4vcs6XWYOl0ceCunJngec+BO6BoxlKzMlqH4Tru4FFqDHUwoycCsKRg/Kysm/DLxDbxU4W9TCv5g2riYJcFp/+5jS/tS+dfnLoek27YWhqkeKSDbEjnZ4gQc1DgL9wjWo6Gd5QkDOkUtypo4dhb9RqbeN4uV5fr7NOds/BPTlKYN6QkbaFehhgOsMFrl5QDHVauvThI3szNIgzZ+vQCCbXJechUPa6gz5QUzRMNcuZZNeCX92N77gBgK5WFcPoohAToLbNKy+0MucHbz2kprWgJj7yHwLlDgW1Sj96Wnnxah9+5/zw//XOAvzDgfgQyNsWRTgAvXHedcfPKUFXxt9tA4AWEsTA3QEF2AO9Pqby8w7EhgJ/emjfawOA99yHQLnvAcYUqClG3n23hem28Jeljfm0F6gLu8JLjBshdyegF+efIoz86Y5hHym06/EOTI7Q9+APch8D1Vb5Gd6GkrtJzOEflBNSsKWvBs58pQ9ABF1DznbAYJcfSBhTbYhvGuZTFzU4CLpGXiab3J8AtQUMvPy07UFWpIDxIICBhE1BfzAkVwQK4TSQqw2HLsE4yG8ki/dCc48aR5Bch7afoZxpIQ0HGBxp8p5suqhIrCKV+RRkFpInMYjSR47eeAwrsmi6PB2K/hqe1IXhE4FhYHIndW46XFJf2zQJ0qqTunXW/SzYZQwDy9WNMAqBhU4VtV/THAKmNjLoS9sfdEkOAwt0QU6OfPIe1lQvxhtCFi0NQ9bqoA2mW4FIjodcvPMZ46OZ8C9BfiSgpSKjtpQdAszGc54ytwZycOG03wWU7RLDUt8wS4ZBYbTXIjUEsc4qlnaY8hkVg5+UwfEHcfRlbS+El6d1tBmoWFJX5/UUOYN/M9WcKk+li4U0ZyAXXX3eXPOhiqV4IbBqk48AVIeASCl9jdnIVSj0Qc4GFm+gYQkHHViZBm1K6ST7tqBHWJgn1UdghenmUIVZhIUFDr937wX15dj/x9XpO3wEYiRYQyVaHha0UYCdT90CQ2lgqu4PV8C6nwTGmM6DijhtLEJ78Ax6Rgp9x7RR9hVwpSKVjRzXAcV6fkXji4HMkhbX3Nc2w4vla2Y/UC1cekilKUXXiDs5F6w6owDZaAuF77PXC0PEoA+grLJKgac7pLOTIGGwTcwFq9TQRgbtEe95SD2W47Gekc7gmfCLoYFUrAE8ma5K0tXMnURIKTlzT3xYMSWu7V0bMfu1cJQgnUsIT/VBTrOv2nRiIYXgDMXtmR6U1pguWOSnJijvSCfawzOtyFm21VOGAWaLNlsoI2C48pIvgqpBk5w6ayKdZAtPEyPBDJ4jnCBRdDuaYlLfGgqk2pVKTnVuSEf1XXiSMXF0zrOYmErtLK6KsA1vB+mOJZNThxHSaf4ET6E05BtuiqkaQmei3iGdqyGTD/hBGCClrxBEYl3hI3gaDdMYInuTaC75ksyiq8B/vGpIx3hVoHIXYqjjeSJMo4qcidpmLZhh+ZBsV0hpdQU64oMAb/A8NqZSBCY/DxkGaLBnpyvvKlLa6VCpV74FYULbCLrikp81h0/qcgwEyy5SivYKVKgrUxAg54dyoLRTgbTSIZcCZXOMtFYzqMxStiBAVv8YXdxEvCEAhz1ACyHDrIny3QdO0gUBMq5qvSdVQH9xKk+YnhieOk2oghvJFwQgl1uOhFVAtxmey8msKZCwfwSaR6jAUIZMgOoWQK9YZZkZcWtS5m6QWhCDcIEcmQCUP1YLSnovOBN1jjQ8BShcPaQ2D0GsnqTzzTpiFoBiFWwvdkUaA6DijpGa8emCSJ88ywHEL4AtlDMonPzscW1Tuu4iNfsBAjW5lwMIDU/Hgja8JlMaIYeLs/mpIrXDGUSZ8SoHqMcC2BYf5xKqmCcAFtsE6XVi4EZpDSabS5CsVknndiCWAzxZW8js0g0ShGybEp8fbm8gvVsPOFCun32tFvMthCwAxyhRAT3AHF/AKrwgPXWsQ0nneQPpqE/vaShkC3gtc3o3rdwuleyONrJcCBwoznn1BPbbgDosAMXGdA2TpZ6Q69vZdKwivWjiQjH6u4EMnt/S8iLgGjhEAp86ZEKm9qCYOEEG1t4EdsqrgSwaz+9lJyIOcCiZ+tYRMxdY2UfIoPmmAKOZh2zG8HQCIoGzsh0m73TPwOz0GwpcAu4GWUkw41DAAuggwZ36DCHsb+a6ErYEWl1kdYDn4/8YFCOBrdAXFZMYOpSjfBjIwnsoQOVoILODBH0MA+7Pwe3yMQ9HIx8jS9N/Zu8+txPngTAAj2ywwXTTDYTeSwKEEHjv/76+XoONBJIs5+T5v2f3AGtLo1czCwjx9w7nzldcLv4pVz3c1JJfBbY9kfSUyqOT6QRCMuc839ZVXDb2UffSM4FHhNjImKpnBSQB22UhxB15Sr5/oN2lx5iaCg4sKSveEtSennodC0La7ymes35xboFi5Uu+F7CQM2VgK/gIEFcoQYw9LHCMxhWXS9GjDLwZVLAkhd9XUH6L4lqGoOKYbhhYeErdoRi5uIkedJG15W0InwWJY+csBNVP9H8pF0+aUYzauMWWXQNAg8QwHyGKJI9XtSHIX+a5litJORKycUtb9liSHJM38XhMEgUXiGpXK5Jn8bgpig1uyki+/YYliXJc6OmrP65DlHWZ0p8qaUhwpLj0pSbV6gjhOhJTJdiSXGsfwlYfziNjTIy7H5qSOb5oDUichpPPIsSEkVxsl4GwdjUgGkCOCaN4BBJ7lrAyQmTz9IAXvsmV0hpninu99iBJk+Ixl/iaXUqOvvazHFdD1WwI9PMZxWIqb6vVdxEi2yeS+wh4JwVaGwuPSuxWcCtvVVqNegBIfgTYAakQLCwoZ1ansBNuGsosArt56fFyFEmNwhFxKVAcmtKCVyVA+kBMJxOxFVRkfkE8qhSHpaz5JSeEyeTpYfuoLpGqdItQyqhWQSPcdCZBjo8wO3oc8zkXFt/hKdClGFQlda0YKdrfNBDGrtD/JXwt8EIxGMrZkwQ2/zGgpFwAiqRUQfuOoEQxuMgpTZeURd8PCHUitYKhDZ3SjPQrSXkdNRWechQRJtMnxVrVNO5J+EZwJeNagOcqfE4HVpxJGm/kQpsG6efLSIUPoTK/1QHi7K/jLHOQLf7hoX/LSsiEHtTefvWyCFN2SAPW6EEuc7qGMzyfCMv7UUN9JFjGXz07FBEi4duAlIRA0AyhdiQDWyGMNSZNgpkN1SakXQE39YjfAKFWjKQ4IOoloIv3koEk5rSMOzzduijva1ijLczoscEaNaiUIe3WT69GZjrWNK20KXHKrsrikEva7Z79b7VFqHaKpDkjVMYjrbyXHP6W+CfASGxDKnQtaknysJVBmXp2fbXwh8SvATpPpm6LCNVjJFHXMipQW/nMQL4eaXd87phlj1BWV/ZPNVQ6IP3YugY+RrcNrT11+66Q1rc672eit5v6MQuS+aNri/QqPzrGyDvsZvU0QuX6JNnVuH6LPhTIlqrNOSNd2uL9QVKH3azm4o4tSbdAuCvF4BWqWJPjyylgpFweArPDnfn6bdhrx3as4bkI1a6Qfp9Qy55cPpvdPikUcG1H8vP126yUAz/XIwXWCNdzSLsrtHDri1Fz7JEK08hLKk4w2H8ee64x15wuZrVZ8SxolC6XNi/NacXR8H+q3nzrFHuuce0OUq5Z12t7iEN28rr53K2nQV7GSTu32F8Ad9uId0m3EeJl51al4+zz/HEadINUnkQwrzWfbi9Q4UTKDBEu55FmBRjFSmf8Sb1UvCyGm071/fNzNHp5eXt7e3kZjUaf79XOZri4vJbqq3Iua0OdIanTzyFciZFmK/z4wu+TQlPLpHrQEj90h7TeEWFPevXT+PE/n6QW6yGcdSC9OvjxX3VGilXaCJcNSKuWjR+6S7INRCh7pNUMP7R3OhoiQs0hnVI/q4B/25AO+YlBXVfP+PG3iUNaFNKI8E46sZ9aQAzRrAainEmnroUf2lsddgy6Zv2GH/rv6NQRwRqQTkX80J7MbLmIkB6TRv0ynuJ/i5dIJkVaTS1EyM5Jo4qLJwzJGe+Gk4T/CqwpabZHlEyFNOq28bAio9/lp7tNL7lVhR1pt0GUXIs0GrfxoFdG/8IKjfeij+TZkH6sjih+izTqunjIkdFX+W6z+pqolUGNUQxSOUQpp0ijoCy7QbQzX78M61kYwPXNHH46Txv0C/BeIcr+oPv63fXbpuTbiIHbu1SX13k+NUGU9JxisrUM+gUI1wPKcxKQGq/PnWIvY0E1269fOm/Nw98J9Dvfv3Wl2Cxh0DogByGzPD0k1b3uR7NLbeJaUGHy5S8sw6DSu9h5vF8hbbYQsZrS81KF6bW5HHWGxVJ9kstaIgHi8irD19y1VTanAvwVKyJSLiBdLuCX2TNSgHmpSqE7HVxP62bzY79b/up8Pi93+/1Hs9k4bQfT7jxoeQ79Zsa1MK3kOOoYMcrXESlTID1SFnj5O4cMUOJJ1hYyiNTLk2aib6jsmLR4Ax/r9URmyOGmA/3LOAuT1tkPVeLTW9KhDA52aWfAJ/YHB7e16B+DNAyquD9aibcapN4U9+SKo4ERj/4/ze83h1jbiNSekxGmNqItSbkFbss297vdx/pQMOm7j4pVrfgvPtlTMsTVinsmX982cpMUZXQvVPsOGFsA+r8G7rg4pNQOIQx5SN5wjG4S6hxNHXh+0x531D1SaWVO70dek8hApVcDAJMuYj57UdcPSJ1uQj6lf2F21CMrKAMGF4Af2oe7B1JmhtvSfTJVgJssh341yBo55TLaC+6w9qSI0w7N+xnrFNEhbm+ZON9KQt++GSMlmggxJmO9hPYrZrPYmwAo+wXUUqRCzZwhQM8WLqqUqiX1++d4CyDXJfmCxCyU7m8CPro5M6dc83kTi2EpbltjG1P3598EcAxHeyODnXHXxiG5WMaMm+qSWtwlbv/3Xzvc1auQVFcz5llJarycsPrPV00L92SvJFMRt+XIYJ8IYcDJ6pOuNu7qOCRNykrSXvm5K822Qec/4Q5t3LUqkOqFp9Uig+XwgLYx57/P39NKf5AkZXNGQPHr4wFulxKiUsZ9R09tFMiU6F/Iv1pc2Yj8Fx+vjvsyW5VRIJeRwZYQVje4qvGVUwSHTV5Cu2AjmpWJ2kBU0bhMWzTWAQd/qiyJEpDJehA0M/qBdtPSwn1WNa/mk6yRyZgNIZbh5b/btm1w8Af0hHkiAnNfzCEknYjt/1eFHHhsPPkNC9ux35iK1ISInLnJ1jtSdfDInOhBzDWoZ46Azvdd/v8X24BLsSL5SMXwkkkN/DYJW/7/z84CD3vk0ANeExgF+k0avKwdJdzUBRd/S8JaFm5bktEK4OUmpPofpdWDqvfAC26zPTJaE5x6Rh9oCdSE+NjVPgnxExgFIvKqNvh0klf9uW2dBh93x4jfIYlRIHbOgk86AeEPXsEEnCZb4rZIYBRo7YPTpEDfSH4DXrUx9zlQ4qJA0zp4Dc0uZYlbt8GrOCce+6RFgbqv4NX+Ro//v1Tq4LYI6L56sqJA8yK49RKU/eDH3i3wsoYB3VEwYHYSv+AIfu/fZfX/f1Mf3KxFgSJVcVvWwE9vfrTALXegb6s/hIDjPPI+UGK6Ao2LEDA0t6eBDCcXAl4HFOaalK5AgxIEuEZnWWVIXSCi12B0UzERXYFYswcRlwQf/XJbuxCRO/dv3gdKwN251CgDEa6R61f5vAWEpGcF7mvItjlv0PnQhpCF4WdYEp0yEFNrMK7+CliQGVijBjGZb//2/7d+x4KYzHtA/+iafQ4UVF2IsTrmPLr06K4gqtZ06E8dg8+BWKMEUSvDM2wqsHMaorKd7h9/NmvsOdB0loWo9NnA4pUGrQXElUdBRBi0RbEKPn2IO5p6evVLe/e6nCgMBQCYgEBSLMglUERRoLVAxSqtU+t5//faPzvT2dmdbYVwz/cKIZeTc05o3tMjVLDODPg3Q+jQQ0ahgscRlP1VhzIfGHKFrpgfFKrws2mu/l9mgQis+IrQiWW4hkrEYAo3f99Z6sDITmifUgQWVKT3u4W5PWUON+nN08DmQZehqnzEad+buRbcoBf9QJvzbgHVWSMs+qoDnTD8NoA3NGfnIBehBnyY+tnvb8qRQD1Wmq2Q0DC0OkULqIcch93w2ZRNTKAuidreMxKace/Zjgx1kXhq1/4/twkJMCCto6xkGmDdlYc9lYEBEvLh/595qAIjhEbHa90fRqLl9WPvqMCIGo6t34M9JdOAJUzTy+m6mqHbpvzz9XSJHE0EhrSMD/9PIDcH9kS8fk2DS+YV5Wr5sEHCH9BmZj4nhXsK7fR1jUVgL/f4yf/HCgOaJkqyTFSMsUp8CRpnFAJ3i/u9BKMh7UfV6tuSuxDDKOCYp3yqQWcDBs944Vt/DUubwIARmyf86lLcwS4DhsevfJl4iC0YHCuebqlfA8rIhwHxI57sZ005fw4kMJQ+z3zpb8TG03v/DUivHs/2fJnYNyDpfPSbN3ffehkaqukLz/W0BJX2Anrl8f2J3/e0yzzoPQkM/M8Tj/g6gZLYEaFTohMnfOp3ab69OBJ0QnIuW77r94FShroKrcL6kW/6/WK6AZWhBTIN3FE+5ToG9+67QaAxxLBdXtrRe7NttnNUYEp1dtmW13UMyV3ixSnFUJNK09hLpvOA2+goZumFO51aMtxAttb6LvRKk2d1xmNuJoV7CO39m27QfKFpWCVElglRsaYtcmrob5EdHtwiMScU3P0C4GGegUkkIkUAAAAASUVORK5CYII=;" parent="1" vertex="1">
          <mxGeometry x="643.72" y="165.25" width="65.5" height="65.5" as="geometry" />
        </mxCell>
        <mxCell id="kkhZQI9KyQwzsgTlf-WE-18" value="" style="shape=image;verticalLabelPosition=bottom;labelBackgroundColor=default;verticalAlign=top;aspect=fixed;imageAspect=0;image=data:image/png,iVBORw0KGgoAAAANSUhEUgAAAbYAAAIACAMAAADZrLm3AAAAtFBMVEUAAAAAAAAAAAAAAAAAAAAAAAAAAAAAAAAAAAAAAAAAAAAAAAAAAAAAAAAAAAAAAAAAAAAAAAAAAAAAAAAAAAAAAAAAAAAAAAAAAAAAAAAAAAAAAAAAAAAAAAAAAAAAAAAAAAAAAAAAAAAAAAAAAAAAAAAAAAAAAAAAAAAAAAAAAAAAAAAAAAAAAAAAAAAAAAAAAAAAAAAAAAAAAAAAAAAAAAAAAAAAAAAAAAAAAAAAAAAAAABSe1G2AAAAO3RSTlMA4tD8BQn4rPTeDUKlLo6AuwLwGbKgZulgKRQ0zEiTxNrWwJh3W3M9TiXIEeYd7ZxuUlc5ayB7toeD0k4FTw0AAB2OSURBVHja7NwJsppAEAbgfs6AoChocN/ZFAF3KePc/15JVfIqqUqeimwD9HeFv2a66WmFIut47qS5sfuOepv36rq2mN6Xsj/YSaJICGGMECKK0m7gy8v7dKHp9d78pjp9e9OcuF4HUHYa7vrYV+eKNpW7hMVAuvJUU+Zq/7h2G4DSQK9r22orxlJiqZCWhtK27PWVAoqPus3+Tdn6hGWE+Fvl1m+6GN9b6GjjmJpMWE6IrJnOZoTpvaoxGd70lci4IK7023CCpe/xCTt912XCuENk/fsJT96/hPNlP+XkhH1FnO4vZwHQ78QOvRWHR+z/yKp3qHx2o6FZK0xif5CaORxBJdGzpe9Yge1061ytcic0VYPzQvYa0VCb1bgxf0a2KEVkn8RF6aNrWZrESkjSrBaU09hWBqzEBoo9hpKZhIsCdoxRkUU4gbIQZqbPKsM3ZyWodA27Xspq9ohUtws9xfSGeqmaxteJ+tCDQmrYVc3sM7ninTl6rFc6s1/E+rFIc5S1WeixVZJ25hoKIQiXDP1lGQbAOXrSKvB9FhXRTjxflm671HOQOAZtF7hEjxpDD2gc9ifj8IOhJz5CvqaWrT22+y8R9/y8FMzwdoxAmwEH6LDGUCS1IYV8CQcsaW+QLwLkp2Fhw/+mgdWAfAgYWrzgBMie4GBoMQ2crIOjfaxpCfjoU8jQccVQIlZHyMp5wVBijDNkIVAYSpQSQNoEtXIbPemTVAFSNZMZSoE8g/QEdYZSUg8gHZ1Dl6HUdA8dSEFry1Cqti1IGg3xRS11YkghUSM8apnYjiBBF+z6MyJdICljnaHM6GNIRLNCP3Pigd+E+Doq7qtmjKgdiGmM6z050MYQSwuHWbmQWxDDCTvInEgneJvKUG5UeA/Fh7VcKRTe4BkM5crwILLgzlDO7t8gIhdbSA7IV4ikhZMRLvijSKnh6ionBhFyG2Fq3Hg9NxdvSI74LrwkwG6EK3IAL/BwUZwzKw+eoviVzR2DwjM9hrjTgycchjjkwEMzfMrmEpnBA1f8ZzpO7QL4EsVtSG5tKXylzdAP9u5oN20gCsLwH2EXcOoURy2IgkjaBgGhUkiIUNXz/u8VWY4CJuZ+R5rvjgdgvV7PnE3WPy5Y+cGWsN6KToVPR5I2LOiyCEvaDR32XiIT15vxSTUPS9y84tw4LHljzhT+MipgUjjJquhAy0+36SXcbv1nU/SNE7mPkEVMco5ew0S8cuT4iIz/fFiFyVg5P6LoiXe5d/9CbnMaz2FC1l4jFT1BrfJxpJRJRa0Mk1JS24VJ2VHzJF0xfWpO/ogZAmzDxBTAPkzMHliGiVn6C6miA/AnTMzC+39FfcDjWeWMAF/GJucOcIhcziPgBqmcRy+Sin57S6Jo5BcARV9dIlW0AA5hYh6AlzAxL8AsTMwMyF21F9PL3dsQ9Iua70QR88MzEhSNqU3DpGxw4k7P0MO2FC1oXIcJuaaRuXIj5G/lkYSCbgBclVJT0nAwQckd7xwoV7LkKLsKkzDMaLhRqmTHqdw37Um4ygEPS1Mzpi27D0vefcaZdVjy1rQ55qpgxGebL2FJG2w458Bk+h7okrkylbR5RqfpICxZgyknfFYiYsdF38MS1eeyrdNAiRpuaWn/LP14S9KgpO2ZI/dvUvXG3n1tpwqEYRj+EFABG2LF3musUWP++7+vvVnJzrYAolImyTwnOczBu8CZgRk2OKOiiXNH4phzxLkt3iV84VsC2JTChRKEBs5JfHGSMTkJF5oQerig8heCmDJVcakOYa7jgsl3vDGkY+LSRIBAGi4ZvBszOgauVKxsRfBuzLKrhpSVLanadHsnjgExu2r6wspGr7g24+MSBkxnsDEiKxvFYEPl84DI5VTYyXxkIw02JP6hqYgVJdgSPrMV8IGvc7EkC3sj+sxGVdga8LeCIhPfwMHyK1sK9rb8HfOIzLdwoOa/solp2DP4gDISLQNOXukrGyXgQOJfd4hAT4Kjzkk2GsHJgD/wDllyAGcNOs1Wh6NJjLgQxSZw0TrLRhU4kjPEhSYjwcWIzrOVTThr8BFlSOYNuOpeZKMlXJj8VYVQpGZw1aDLbKTBzZofFRS48hru9PfrbIoKfsFFqWjihle6zkY9uGvwd5YDpDRwi7mwy0ZruJPf+CJlQOJvMm5akm22xQ43VLvEBaBbxW0a2WejqYRbBvzAIN8JA3igKk7ZqIeb5CNf7fJV8ijDiyU5ZqMKbnsp8i8++EYsvsCTNblki4/gQfpAnC8OaXizW7hlo/IOXmj8I4s+aGnwSJqSazbqmPBkzB8MPCk2hmdNupGNWjK8WfNwT4it4V2JbmajgwRv9DU/yuRB9TXuMIp7yEYJCV41+Pz7Ad0G7lFdkJdslNLh2TbBpwN3ERNb3MVQyFs2SknwbtLjE3DPkr0J7jOLkddslJBwB7PPl7w8Efom7qS2yHs2Ksi4h7ThE7mbWhsJ95K7dE82as1wnzS/V7rfHdOAH9Xcs1HMwJ3UEp8QOKiXVDxA7dK92UhI4261Xp64C/leDQ8xp3R/Nso3cD95c+AzghPiYSPjMS8deiQbiUM8wujzZa9Psb6BR6UFcsnmKiU/+C/f+JSAhLc0HtfI08PZqL7Dg7aZX11OyGzxjFeRnshG+TEepY9+azkhM9LxDKlH9EQ2S0bC42pvv+5oms5bDU8yuvR0NqpP8IzJsPtrxpZidzjB00Zz8iEbJUt4zmxT/AV7CMrFzQzP0/si+ZDNUjDwJL22b/3gi05s7Ws6/GDkiPzKRuUNnqeOmz/yl67THKvwybhMvmWzJAz4wagUf9QWEKVYMeAbdUnkbzZalHT4Y1dZ/ojP/LWXlR38pCnkczZLKw3fmOtM6xtv4Im3MmsT/lJ7REFko3hGhY+k7Sr1De+YSmq1leC7sUCBZLPMB/CZ2cgWvs1iilDINkwEYVcgCiqbpbWF/4xGP9Vhen4gdlL9hoGAyPskBZnNktohEHKtkskxeJbGPJep1GQEaNwmCjwbxTMmAjPbljKFNhOjlXi7kCltZwhYOkcUfDZLfq8iUFJ1PGzmFJEiISq55nBclRACYylSONks5b6M4Ek7rZItdpU4hSKudIvZiraTEJbZW5IotGyW+VBGaIza+vW4PMTmIvlOnMcOy+PrumYgZGp/QRRyNuuKUxE23Uhrg1W2mcjV2+U4PShebtdziWZ2NdDSho5oqP0yUejZLIusiSipRrWmjQelYfYt0yumEodctzWNvXc6nfZff/+8x6atbu6QSBV7mbfssDQYa7WqoSJ6H9GiyGZJNnfg7mYe80SRZbOIiRG4u0yaSaJos1nqFQncXVsCWchGVD6+gPNAGkyJiJVs1r2yoYNz95KdEzGV7S9lzy85F3rDujuyl+1zowJnf6EpRMRmtr8WPT6wdNiHxHK2v5TsBNx/W593/QlQKBj1If+Z+1A9KuQzAUUKzLTP108m+3fyn4I1BameTeP3SmdjFIgu1DgFS2lqv3EFRR9l2hSUJZCgwOVTGxO/idxYlilAQ2BMYRCn2dEvueiqq0OSgqUB0oJCkk+UfvoYRR33FAqeCqBJIWovBz91YiBrx5Dejn8HgCrdwNN5SJa1koWkCUuXwqcUS+kf8rzAHB+7cQrTGJY1RSOZO46/+QizWlp2KGxxGRa9TdFpp4YaCy/k3O1lfTwsKAoFfHiliLVTfW2Gb8MYZw9likwFH2QmtksIheMgzfjcTq6VmrkyRSqp4tOKWBHvJPZrFuPJ6U020WZhK1cK/8iMbQsUlUOmpLExS9B3jVUzJ7AQ7OrL9iViUfK90FyN0yoioabXw+aBjR1bJ97PPzHLsPI00ewPtImMEMi70WDfLNQXxKYSTjToO1jEDsXMsNJIGxIs/u4HGb4VD3XWz5gSJJxK0PeyaE8PqWZ2VRmPahNDxZ1kc5feNqydO6nDtF1m55frliHO7L73afBift6utz521jQzx2w2u+/3h6vV62o47O/32ezxY0dOIdeqd4T898l0QZBxrk8c+0q4IPEz/Nn3LuHDDv+kWRvqclc0fKrw2+T3kcIHE0V80fkn9Ni2MPFBQ1vFlxdWp5gcWQb49Aphjf/GxLErgX+WEIo48UYcqwTz/1IkhIWE/6QccWwSNfxTFSBQAydmP+Iw3J+ojy8lK1sKp6r8+2tMKuC/hJUtqeKUxmfdDIqdRNIXVjZ6xZkBcawp7/DfiKxsVOeLyoxL1nAi85GNtgD4NIBd8QZOKZ/ZErjQJI4d4gantvSZTZzgQo84VogVnGn+y0Y98G6suqwmLb6yxXfg90k2iQOcG9BXNlriSpa46MXXuDA9ySZWcWX1bd+T+TnyGi7U6CQbFXBtw9dLIjZP41LiLBuNcG3EH5tGKvaCSxPxPNu7hGsT/jwgQgUVV4p0no2GsDHjz98ic9RxpSpeZsu/wIaUIS4K+Q1sJOgyGx1ga8MfwEXgfQIbI7rORhXYqjK9iepnWsqwodftsuV3sCUviQtTfgNbJbLLRi0d9gb8Rhmi7g62jIV9NtrDwY6/sByW+FCHvRQ5ZBM1ONCHfMkkFNMqHIzJKRuVDTipTokLWnKlw4FZds5GLQlOpD6/4AJW2MFRglyyURHOJnzNJEjKGM5W5JqNhnBRYf0gge8rfpThrBa/kU1cw8WsyZ/CBaIwgQtToRvZKD6Cm1qLOL/VNbiRcnQzGy3ScLVRiPOTMoC7DHnIRvMJXMl9vmrin/mrBHev5CkbKTu4MzN8MuCPcl/GDWPRLttD3fCy5GOT5y32Km7ZJsku24PdMEnxcM9eaSpuSi/IezYSqripysM9QfnD3n1gp6qFYRj+lKYiWMCKaOwFezf//Od1DzfnJCaxAAKi7mcErvUuypZd1gKuq4zJTTYqGbhuOGPPOG9qyxwcGI7JXTbKy3BgorK3Stc4SYYjlTG5zUbiEk5Y20hsbP448uoQziglT0fKduAI32W74zkWLwpwaJUnT9loxsOZvsQecg4kZis4NkiQx2zUqMIhLROxXemjZ1RMwbkiR56zUWwFp/iBzgYEZ03rClzI7W87Ll0swrnJlq0aOCUhDXi4IUg3n3KfTsEFucBGBN9x2XIK7mzidHM2aipwQ+ju2M3y06inwS1zSj5ko8Qa7lTXDVaOiGvNJ3Atl+HIh2w2XYNLk96Lz9ATs2sNHmhZIr+yUWkB1ybz1qtec9N0uQpPzDH5ls2WrsK9all67OM8vIjv+zy8EepE/maj8QJeCKbapJeR14sTeGY0yedsNn0CbzZr/QUuOrGVWfHwjj9wFEQ2ys9z8IiX97VnftK9q2YKNzHiREFks8VX8M4aqPEnTCeO1NsPEE+pHAWVzVbQcIvqov5M6RKtjCzgdosYUaDZKLEVcJuUmck+wV9gzUJR4eGH4Y4o2Gy2ZBc3yynFQvNhL7uxvjUt+CR1ECn4bLZRH35I9XvpSBxm7cKbtDU1+CdXHBOFks22M+CTlNwr1B7h43i+0Z73U/CXGScKLZtNqsA/uUpUTpE/JTGa9cwJ/KdkiULORly6An8JxjKTrkXobYV726lreYJgVCSi8LPZ4RQEQJOLe+m+B5bbJ+z3BhUewbFn498lm01fISgpZdCr6+GeYF6q6e3OclVF0Cp2tHtls7UGOQSK3/S7PVVqNfMUDK70nk2rnW5/wyMchsQR3TObrVkUEAp+Ypjlzn4mZWtvU45uII6bDb2gZtZdWanmEC45S0T3z0Y03U8Qtpy1UVbmorzuZD5PsI8335LJWGw8HpdKpXEslnxrNuO1Uev/4+/V/XZeXpp9Y6gJuBu+HCeKSLaP5QjMVdXtmChC2f5ozlNgLjEKIlHUsn3McWfOEIojIopitj+aPQ3Mb0o9TxTdbEScvuDBHKvO40QU7Wx/TNt9MH/xC79XkcVQo4Ak9wYY5PrtKfkthgMF5+2g4LUZaowC0IRBgUqqcg6vKddXkxQMHYhRwEqFgYBXw5vtEgVGBVQKXkIqvtKowFqm8xSkMmBQOOJ7+SWGBco2+DViCoA3CkteKm7wzFKLWYyCJ/KhH2qfnHWf834pyIcRR6FoAYAmUsje2svnSsevMi2RQnOATaI7aM6KFTwDe4Z1gkIlw9anO5nutvJDjw0my/odVhFNecBWo/sRa+2i8YCvmJa5lWJ0F2l86NKd2e2Uh2lnyR0pSfezwAc+Elv3iPF0x5wgynKV5UFP0n3lBfxVpsiYtupFOXrxcptBb1aLxELmGf7hkxQt+Vp6u1Ai8boiKMtMOh6JYB8MAFF5up3ExVqFTLev4S60fjlTaERuZ9oavuTiFGGJZnaWKZuVFEIgDOVypr17j9D19U0ZR0x6BPn4rrDvdWVFy8FfVUXuzveFXXxK0RbjcUynh8KV/p8Lvl0vTaMysXj3M5onFUNerrdqQW80x4+wKPLk8Xqbx/nlpyRKyXgjq0vpWVvdZzqdXm++XheL5XK5WFzP571eZ3tQ67OPGedvpajeAa8aCwCq+JIhJvrWACDjC/9CG2M9rDceAOY4sorqwmnm0wC2Ao6pxERbFjahhmMCu01GmziErR/HN8Zjv00+vS1g29rZhvjSIya6ajxga9nZig886H4pYgWwCaKdLY0jVtQ+BTCf5vgwIDtbXMMR5WH/P3h2Ev4qfGQrAoj6JxwmaeEDX/rIpuObPTHRk1Dwl0kf2UQLx3ISMZGzxD/pv9mojG+EBjERs8U/qcS/bFl8Z70TEykzfFrTv2zcBN9pbBgQKTqPT++f2SiDH4aRm/jyyloCPsn0lS2Www8V1i0yRil82R1lowV+qpSIiYSRhS8KHWdr4JcKO445EkYpHJG+ZaMVftmw95IIaH2rpnDfs+3w24R9Nb07XcAxnb5nIwO/WWzcfWdtHsf69DPbDicI7H+uu9rim1ztVzaScUKOzQq6n8QS3xXpd7YaTiqz6SV3EjPwXXV6Iht1cVKfDeDuoqXhhwKdyjZO4aTJi596fh8qjx9MOpmN6jhNaBMTrvwSP1mxM9k4A2d02QSTUI02+KVAZ7LRO48zKpFebPpkuMOJDl06m40OOIdnI4GwJPv4bZi/kI1b4SyTfcoJRTuF34QaXchGyRTOstLEBC0p45QCXcxGaVywYEO4YHFqCqes6Uo2WuMCq0BMcGoGTpK5q9nEFS6RI7E711OarnM4qZKnq9lorOESIcP+pAwCN6viNC1JDrJRTcBFwywxfmspOMN6J0fZSMrhsgG7U/rrbYFzhBY5zEZ1XMF3InSg+cMrrfnz1bLkOBv1cE21zh5x/shnUjiL18lFNirjqiGbsOCDxMHCeYJOrrJxS1xn7Ii5SWJfxQVCltxlI3EBB/otYjybHqq4xGrQ5Wxerzegz0YDHo17KVykvZP7bMR14ciK7YnhwXuZx2WVJHnJRtwczihptseaO1kT18h58pLNloFDE5WN4xxLtCu4qiyS52w04+FQqscWejjSnFu4ileJbshGuxScyg3Y28k1oiTDgWqWbstG8Q2cq6hR39b7rpq9KpwwknRrNir14YJQZot0Tsu3V3BmLdLt2Uhcw5WKyqYu/MTtlgKcsSSi27PZ0gJc4QcS+5/5yGiuwalVkvzKRu8VuGSt2c3yw6izgWP8gSP/slGiDNc2HTaT2VUzoFIj8i+bLW3BvUrmhctxrd4EbvAdkfzORjEZXgw7L7nMKi+Vq3BHqRH5n404VYAnk3X2td5QknWZh0vCXqQAstne+vBIGLRfZHOahD6vwD0zSRRUNuLqKXimdFpP/qGAGx36PDzYSESBZbPFFrhBalB/2p0q3+uLKjwRMgkKNJtNH+ImWnf2bN8KuLg6qMKrZZIo+GwkHgTcaFiePcsE2URrP7Dg3WpEFEI2W2yJ21UH+8aDv2C+pdcGj1tUJKKQstlGK/hB6Pekx7xjxvTMoIobTWYchZjNJg3hE8vcSo80OkhKW1PD7bS6SBR2NhLbGvyjmb1CPOr3zHyjPZct+EJTE0ShZ7Ml1Cp8xSvd/S4ZxcFdvpbeDibwzca+0kLPdjwX2neCssyk4xHZv4Z726lFeQJfVQoi0R2z2VechkDkNnLxkB6V6E7yNUldmxUevuvrZLtjNpvYHiJAKWXRU6VGjKNQcLGGpM4XhoVg8MsRURSyEXGSgcDlNGMx38/0Wkwk3yXeGlI7s14YWg5BqnZiRFHJ9kdrkUNorGF/Uewd2lK2lsxz5AWXHzcbekHNrLumsREQCsN+pEUqG1GyZ+EuhOpGWZmLcnHeyRzU+qyQliRd3+2y2Wwrm93tdEmS0oW2us905sXyctA3hpqA0AnFGhFFLhtRYmaAOc1o54mime2PUTkF5qfqPE4+a/iYzZZvs0suhDmjBX+z2d57GhjYcnJ7SkHY+p3Nxu26ApiVGqOADALIZkukTR6v7L/27kNbTSAIAOgoVQERFARRwN67Ytn//6+8mJwkL9HoU8oCc39hzrbZ2R3nVCLRWVzDFonlKq+R00YVn0SpAdGF7Rq5ce5mS25sNEjEBPhQJRG6lufmxsISRBK9NXxYk2gxXqBA9rFS5ULiocCHA4lewW1n+iQ+2ddFEpcCXBVJHHhPHWVyj3KwjBKJkwtXfRIX8TjM1nyZSLGuBFcHEqdlfehkYdRpimn4JAFzDX7wSMzEqprqta7cVo86SUgFfrJIApjiykzhsON2+9WFIQmy4SdOJwkRvcpgokE6fI9YMfF6wC784pIkidOeuaM7nXIYB0In8YhdbeEXmySO8YVgo9A3aS6kfc+j6P++kga/0fKVJ9MRTpZDxW6FU7aB3KIoYDd6EEmEKg1PVq1dDRJR2w1Uo1ugY0r8W4GDP1H5aY9YrLvBYHRgIQbcRLLU3rFDSRn7HSZ80iYUY+bTa/npaFKGkDUVabA+GcdiOr5U9Fn4LCW/voilVlV21fWgvbNrZe21ukppY/ZPK6FbLND+NutWNQJQvLo9SZz7rW5dkFfutX51b5qmZQ0G2812O7AsyzT362Hwo+q1Xp12Csu0xemzKvwDW2hQj7fhHwqdWyd0s782LakS9NCFgxtm+Fku1XgHbrIIopgKd2B/KIp1NbhjQneGINeWC7hrTRCdmDb8B/Y7oVQf/qeWjtRc7sjwf2OC6ONx8MCJINr4TXiExVMAbeYHeKyZzh8es2upwDMUPL3RRHfgORu8C6CHvoNnDQmixN2o4R0OxRoKfIEmE0SBkg1fwtJS75prlxp8EYfZycR1ZwAYt7QxWACMW8owfXgNKxCUFL0Nr2INgpLRmcDrtApBSTA4eMsQ81zxE0141wbzynG72PA+J03dnrLA5SAMtZQ8ocqGggQhYXsExUSeQXisdL8KS43CGEKldAiKGtMrQ8jKePKO2mUHEdhS90NHpuhDFiKxwEq86Mg1iIq2xqN3NKY7iNIEB1wEChZETDNxhQuZHnAQvRpewoWJrzQhHm2foHDwvQXEhu3j1iQMjDGBWNUMvIZ7F786QOwc3FO+RXQPkIjxhaAXLc9NSIo2wIdwLymty5Ak1sSbb7o7y9/B7nHEfYXYo6TFD2vhMe5Z/nAG1NC2WGzyBKY+Tn52/EzCn18f8PtUNiO3Xcyc3CUaI6DVbIiL3C1M16Siich9koAVXn8p9hdAv1qAQ+630tmGtJAMXOW+K1V2kCplq5r3C4LO2YEUqg1bJLdawQRSy1aLJH90waLygPYVdpCvMedXJPq6Pb7ksO7m41Cg19cpnhpvmA3kjH/AzHjqLiPD7BN2dJ5mdHPJFN0x5VmQtzS3vazdzfHT05iiq5jITEx5TrJBr6oS3a3Cw2WbRspHHVNcmQptd2dxWGwrXjpTYCWhL2V5KXuIdfZGmp4WMx15KOVhJXtCWRrKF+r3mMuuux/leozdwjmm69H5AEtsGf126rNVUVpI616XmjabTKnq7qVFHjcer2iOrLPQ0klieP/Y62+UPO3tw9N0BqpR9UUSG71TXanWCMdXOOEb709y9dIg0RBLU6GnWm0bNxyRYBdO2+pXjLrXmfPkHfy849WNSmBuRhMMVpzKB2XU3lrr4OyuZOHYnbYufqGx1HVR5HnmAy/q+rIxL/iXlletC/LKPQV7ayM59iIrkfoGS6S65kPFQRgAAAAASUVORK5CYII=;" parent="1" vertex="1">
          <mxGeometry x="484.5" y="328" width="61.6" height="72" as="geometry" />
        </mxCell>
        <mxCell id="kkhZQI9KyQwzsgTlf-WE-19" value="" style="shape=image;verticalLabelPosition=bottom;labelBackgroundColor=default;verticalAlign=top;aspect=fixed;imageAspect=0;image=data:image/png,iVBORw0KGgoAAAANSUhEUgAAAZAAAAFmCAMAAAB0qjz6AAAArlBMVEUAAAAAAAAAAAAAAAAAAAAAAAAAAAAAAAAAAAAAAAAAAAAAAAAAAAAAAAAAAAAAAAAAAAAAAAAAAAAAAAAAAAAAAAAAAAAAAAAAAAAAAAAAAAAAAAAAAAAAAAAAAAAAAAAAAAAAAAAAAAAAAAAAAAAAAAAAAAAAAAAAAAAAAAAAAAAAAAAAAAAAAAAAAAAAAAAAAAAAAAAAAAAAAAAAAAAAAAAAAAAAAAAAAAAAAABeyFOlAAAAOXRSTlMA+gpLBvYC62TvavMS24LMcNLgKF8XfDgzIawOdkI9vy6wusml6LWoiI5XoZNGG+TWnR6Yw1JaJU9vmumoAAAb5ElEQVR42uzcC5KiMBAG4A4QURAYRMU3M7oqKL4Gdez7X2xra2trZmt3QvBFAnw3oH5Jh05HkJPyMTnVu2GyXASOa7V2u/l8vttZe+e4WB6irrEavzZrUHm4zqRtHwLLRA7UCn7Y9XG/CuYRav3LaD1r4BWoO7BXngaVO6l57Sgw8UZ0lhi9KpVbDTf2tIF3Q2fRqQOV6wwvkUPw/vbJqgolq5pvHwk+jhttFKhwGp7XOj4cfatvoZKqYywIPovT9aDCTCPAJ3OrTL6jnKcE8+C8VGvXv8ZrE3NDpquqxn+17VqYMz1+hcpv4wFBERzP1Zc8gGLsURhzu+zVZBvqKBSy7kF5eQcx1qq/BRsoJ3+BgnJOJTxDmUxRYPtzySLxhY6jdJH0hF2svnIvUA79HyiJow/F14woymPwAcWmveh4H2TuBsskHBnt1UXdjCeT8eZyWrWNbngYTF0d74RETSiwzR5vRaxFPDr5Wy0l+Xf/8hJPLYK30o3CVvf3Ad7EWnZPWcd5tI9Ld2DhTZxilhJtZN6QxdqYDOFqim+sb0klKeC65bt4HTILL024g456/eDEvA3FosTkyukQdQh3pKiRi1eZ9qFAxi3MznzQWEinPTAxO7M4xV2JMTP9oCrwMIqa7DCzoCAvyaSVPY2NBg9WGyd69pcE5KeFBDOhg5MGT6GpmQcr3qQfQvUczMQxmvBEw/oMM5mrILW6iRmYSQ+e7jVuYBaRxJMQwx+YgWUMIRdKfY8ZONLW9tc98puqNcjPZoH8GieQUptmmPXIfUrNS0ixly0tRl40fgcBbGOKvALpdludI3cckTAP1wkbyGknWQe4t0M+JBYmjl+aIUU+VKp244oin7VwO5Yt9/BeKE9vy0Y+i9xL+f94A+TzJskVBm2NXPbCjmxOHOTiCLXcfqcZII/Gi8Bbx5qhI4+WBNfh3l3kcRD8x9XkO1FrTEBwXgs5uMI/B0DPQQ5U8K92X8d0tCvwavVJG1FMR+ogsI2J6Y7STAP2p8hhBMK6UExFX+TZvnMeH9ggqDPBVDNpXo/f+kdMF4KQOPIgthTV46saTyWJQUDt9DxaknXk/hzrSJnIGVMthyAl5SBhIiuCKajQ+0O2tolpIhDKJTUPS+r7354r115rTDHFQvL5cWUp0/eIb2IKW6aPj//rYhph1mRPRzZT8IYPH7WBbESQx9y2kK0ldfn45FnIRoXomTbdQhzj8Ggeka0hwPmIFiDbQpKDzruU9lb+f++0RrZE/nL+VYhsjgL56iJbFwrGQLa3GuRpJfPpzXXORODWb4+y81hBAakUmdqQm04LWajkl1u+MzaRhfqQE+2ILFTYuatb+Q1k2XUgHxE7jzEUVkoigQZ5OJc2j1+JiNeL98xyrldc/dQTPJ2yRwZS0Hr+aUKRofEBz7ZGljMUnkqQwdHgudpynAw80lmkMvJhlqpfck0XRYUn0hxkSKAkbGTQO/A8NjIsfnJ3p81pw0AYgFc+wRhjTLghXCGk5SZQsv//j7WdtlM3YbGMtULp862TzoT2BSSvjv2/6rs3D6TPoE1bmFyAlsRfqwhAE6uKtO39l2g0CqtIq3RBjxXS3P9k/VzW2Ufa0QMdHvGK/7Lgfs1QIC0GDayqqasz9xHf+0vrxZwJ1jle1Lf+R0ntKTiALgukTYFdRyApCUGj9RGvmQ5BD6t+z+VDb2bIgN6cGHNB4rmMJD8EXrEJ8+4f2nPMNm+DFiek7YFVs4ykCeizdvE3I1bJXpH2CJyWZgwgHRflVMZwHf8wUvOAzyOSxCNo009Q1s4CHcbuXb7JvZoZB4hW+Js5h8iDu4zrJTNWyA4C5VVC0GJ6hwOh/TlS3AbwoR9NDbr54lBGimgAj+ju/+pfqpjHDPR40L4ysqkgZeaBPgdMmcWljyIf/xJ90OMZSUPg8IoUMQaNbPxr6V3ObEs8CHDalPV+ShsCTZhh/TOhcfv039G/JSnQu3FugZSqBTq1Uk8ZQBjm2pPEX+fbeaDaWOc3pGXJBVKXeYINQJex0Fj1nSDlCVRy3l5rLqLYLb9Zny2QKxPyqgNqdZBSaYI61iD1rFOO+p8sECvR9hHpMT6C0O31tuvPFciV7aVVD1Qaa/ksxgLfETFbIOdgNZlOXoMxqDTTtP/8CSlvzN/ALZZAnFIN//BVti9pI6UOCnUFEkbsNdyIIZBhFdPcgafhrWuDjnp3BxTx9kh4UR5IxHj/x8FFwhGUCV0kLJTl8SR91CIqEAjZvaEWAnAfhW2DKi0kiLOqPJaSh1/GUR2LBeIsEDkTaVbY373OFgl7/jzSSzybQSoN6UB6XSIPpkQiJIgD9+RaHLjzSN8p9LgQiNKBpI1OTjoP5kT6PvdG2xn3Uan9u5xb484C/7X/VsMUmUDSkthK5cGcyAAJvsVbNREHloUWdy29kWEmvz3Gb/VTebAmYvm89ZM98wiy+piHbCLLrEDSylFzgagjkQgJNdY5rzhzTBPddeoHWdZA2OAl4t0fJ68zlkTCCudjW4CEHke9xF0TP8r5CmqYqdwGgJglkS+co24NCW2ePFJat/cRXGfn0YGfAo5ENoL6pRYUNWatYkXXrzwbIGm7tOGaWCIPvkSWfMP6inPdPiDyyPhvdSdBA7K0n4VMHgAlhkQ6bEeqnDlelnjKT2MJW2YEE5OTBVKawehaHqyJHJFwgGJsxoVCr0blQSdSD0LIoRslZB50IrM+X3WjxbT5xw1V3zEr3jKfe0VvmD/105HKg05k5LDV/+pQiFUhH8mKOxJ5ELVmsT/DTdoTIg86kYivQj4u9iZmnPN2r+WRdkoQUTyd4WbjKZEHlYgYc52Z2Nosm012UFxJuvWG1/5qN6GQdT2Vh8Tm9R7LgZH56tGDIiyX8c6IldYbOZy4gj8lY7njBAflt7D7r0OP62p30QSl2/dHoMHmpZYcB5ZkI8YBFOT4mFLerx0o7onzBMooXTc2wT+JjBR+A5SXtgMqOGXOO3+m6XUNI5TSb2lVT+uVxZsFigzxsoqlegdTAEZIz2FCKGqH6PZOFqjzhXW/e8uQHg9EWaALRQ0mXy1Qqsq6fXRoSteNy++RAxjnjJeVFY1Qc9MS6aZfkYF3eQbMG75ejOlM80s3wb8SME+P+V7FZsWoRLoJpizAOMSkV+HB79ic7k0Ah8T0dgJt9nsEvak5ibzLwzdwCBnw330a7kxJ5FA1thd35lURZ1BnU1WQSP/cHtr2sH3uK3sdOweM4xFDSALAlEj+1ofWY7ycpV5nebaM2w7k1qx+uIjOPB1yrxdrIm4XJB3iqYsXVJ6DZs48dp+hYVNAbv/hTWQFMqyHEdLE88nJk8enaFC6xMuawJtIHbKFURkzbAf9GxvCCwNnvFcKWXUA3kS2kKUfVVCCP7BAQr/2Lo+7VwwuCzVeINjNdbfUwxwlJV8hW8+UmXeGocZ+FEGOnWSNI+bwvIEMnc/SYG7AsBWS4CT417wP18Qu5uJnvYFapuUxtC8b4UVl+7Iu3K4kXUMKJ5jb3so6T2fWyuU3VGEXws28qux1B40q3mDWhCtejCuYvKActtavJ9kzX48+3iRpgOTJnggM4E2wKLFWdep6CTTbxUuqvahktzudtv0Q9eZ4iX8t5rpxNd5+HQuKVVX5RTdfh4ry07cm/ONcmrjE8QOCbdaY/lPXx0L2yg487HM1MK89WHBBGNTxPb9x7RNq3AaxocACjg4U0Ez/7kbG/oO02RpIdg3fqYZAecMUQ9owfqfuTpfUBIIAADcIKApyeK2LxlXE9cZojOn3f7FUUqlFE5ntGQaYfP/XSqUV5uijjeLSAXCyBrfehy5mVvSJKekWmLYpPlpYpFXeBtRwQSaJoz1f1p6JOabkk85LBJ+ILuQaHB8ziSI3U8YMBW2BxyHGfCdqFr79AwgaTWK4HRMzB1DDIEQhXeAQ7ZBlQhxF5t6AZHzCe6EOOXYqDoN/66CAuQV05xOyaAPagWzsAJET470NZXOYKDMN/or8ggjojiEyrSDHQbhmOYpJk26sFDPx7I/F66Y1hhoNkVdzDHS6h2x9eM44sdev9HnnC/7GlV7fgNq8Ih9tKnO0mhlRDoPtW5GxqFOBieTBCOqie8ilLdZGg7PoxAgL3Y9dKbeRVhPzaT7U5Zwgh4vUn5/Zo9wP7Ao2xJvmV3MpOSX+i4ZkM4PzhITJbFD6dSUOcHMSwsKhj0w+1KWFVKEj8YOTr2NSynercIOCI2PymxpzZf+yL2nq7w4z8SjSH0G+S+HRGNaJsPl0kck1oCbGAkmu4o0C3Ui0/L5f/JY6yM3pUPWh5bhIMAROqeDfTjGTGhKyWm7wlOEhU2hBXXo2fuodeNmCq+WNjBvvCWGt7qyQ6QvUpoGf8XTg1REMSICZm4xLsDnk+bJ+n99bNWXnPzjCXyi25AxVBSTCjCelVVoCZNFKbiGfH0QgZklYA1YTkClm1pU3BIiaMuuUDhrOLRCix8jQguoC4mPmICezpSF2vGBLeTevQcwxZY27qTAgFzndYAwNP0zEHhUdOfWt30HMyMQcC6PKgCyozwz62uBSS0CsFTUFgfNwx3WgyoAE1Lcq/dmzqiUgmyxJR2rKr92DSgPSpKbj0bczXh0B6eOH2Cj0G2OUp1YREI26yKKv5N0aAjIyJbQ8jk6MvJCKAmJgZiIpEzCpPiDHVMq52M1mtLOuJiA6ZnxJ1wrNygOie5KKBQ4aPoj1OgMy+W8DspT2JvbxXnqEqgMCmBlKagQVVh2QicSCs6+YMUdQfUBs4XpsxvzcagPSwCdWFggxvt1XY9YQEJfajZ3+zZoJBkTubcamcMrvGuoIyIy6f6B/zrLSgDiu5GFUL2b2G6shIDv8YFogLsEPa8GASL4RN0eF+vGfIqglIBM5k1COmOlXGZA93pOzRurSEjjpb+eu4BuxLWfKw6jCgLTY967CZdPaAYoK8UPqiH21X6W80zVdMCDy8w6XIEYPfJA6b8Yb6Q8sWrZKxwBBVsJI7yUHRH5m7gTEOFBcF/Npp6FO2eVeQdABM+vKAqIH+JkG1OYLMrlnwr3MSkYp/FTwD+0yqjvsHtTFCpEp0OEph1TGTh+Y1jQELxrTUuqfXAfq0ka2FuHlsys+BuWr6L/ZK6dCcFZf0nCATAtCYq7WAwFnk5SA6DRaj9rveGdXUg3tHipCL6Fir6F0u2i22o5SCq/vNWRqSasyV6anYEsseXZTsGnwlFKFp8fIpg3E+zAoW3syEWpBcDQxkwyAUxRS+mFt8BOv5XUqSc5Ql76J+WLIsS90kfBO2YlFHWTTXkrs5RPoUJe3GPMdSYN4ugV+lanO2O0w7UvtdvUKtbF+LDTuIqWh+EtwS7uDWBHqL8rsBzeEGjnX7u51/seC8szSXdHW7D80vBNbgiXC4bHsjolXUISVYKZHa3aitYGopdFmpPvIdDqX0FNU1YElF9I981d8sDGAwNhQnwsBsuwi4VNUunAAapiSmrRGLj74NoZPjb/99TdWfvUIQ3yopi/1N0Va2VkJ6X39YuKDjm8Bk9W2yav9JeYwvfWLSAoCnYKd09aYCTjKI4IGMBwCeueis4aZbu/DbWABp0GKXFTrO/9LD+8ceJ7N8dWC5xoznqybDeGEhJ7GJk6bghK+YWbGdxwRdt/gH7fhiWuh73SkDVzdYSHNMahgSyzPt77iE+Gl/6LDH/rb94uLT6yplUkjKMDHgoIIFGCk1FvaDeZIvMVqtfBSZjIB5ewyLlj2XNRciQ6cQ7xzlv8V1Prk/mbbYmXPJIq2Srszof+XNGzklo7II6hcq1DZsyDVhlT7eK9F2+3RrQbAYMWyLu/GjedcfCpsPFf/Ssvna7pjDE3kYLc5bjFDA6QzzLysRUVl8aC2xOrNkOz1CGynsndmI+UaorH5Iq39ty6SeFO+6Zk3kM9Xr/0Wiy+W7Gq0CCEJCME94r1wDNLN8SlNiWFXn8ajDVTWdYYs2rwh8IQPb5ApdSi9B5Lo0+5UajzEpwKPh15eNL75A7GK5fQ+IsoPpTdGw5kp8Zi4VXiK+bn/9aThAzPebx0gu3XwQdoDqSbsCkNx1pu/svE3t5wu2toPEKK//fDXl+X7+27fbTVuBvCZmvggkRuRBT43hiJu7fcm8cPo9JDZalycShHRTXwqBGHH/i4tZQk9ZLQZqtT076fWGaDsBq870YSdvcvOUxen24rEA+BLBx94BpQ9/K4ldclmRrKHVGtXqNPILuvINZT7CpkTJuWJWkpbc8iPiDYuedHrSi56WkJxrlK3+y/NUhJAupJ3ITd8zjagKENToYYo8/YQEVsHKU743A8Q5Ap/IM+pXv1XAD/JuxelxGEoDMCnMW1B7iCCgtyvKndE//d/sZ3dYWcX5IRCkzSD3wM46p8madLkfEtkRjpUoHsQnhrrs7JuHNb+T2WIf/JGe6weXWuG0zJCZ5fVc2Jnn2bat49y2vdCZNrYPCvnxEHUA0PNr1p16F83GeO0kd5p75QUsp8NMoNvI1uT5bxKdL1X/kxqTDtES+SuD2A7I/OqXuwGx1fP0lUapuGb2hIW6Ugvx3lmc1y/4Bn/rCi+LzA6BnYgsaS4JkyzYeYpmbyIlf/ufZCvq/J4071+OmJf0+PYgVGjmLIhkwi3IjwsyqvjaA7x25gNVQ60NeK9ucf2WHEIX72ArHF8ejy73bZoNq6K/jHE3lYweYw1NGK+MekMe4zT/CzFNeUS4bc/09MKXai+8s+Wo5HP2nd85AKnlUwNTU2KbaX8kUWc1H4QFFkjtcWhZ3k+j4Wg2D5M/d9kaK70ZfCmmLvdg5MZf0mKQHyMfXwzCOiI7Br44LkNxpxiejd41j0YsIncQyUsRvpC5qTVUSJyxAyPcXTA6JlbANhSfHLMJJKKdWZ1/ZYBb3OQiDjOYysovpXB4wYFMGomErk/PHPLe426Aah+RkQPh9o68qj6OKB1p+XewB02/ICKvCDRxHkF4mSHwLlE2Dx6gjSYmLzQL+uD8UkxsEOqX87gkIdTGjEut3iT+zzaRvJopMHokMn+cEUaE+Et56nyJYvYBZzXlSfzGAkyenVeX/u3Eya+zpAjdR5VIvmwjB5ICMbxo9AwlIcIwXggLQqGr+cQPfBy8/35g23UQNL4LldsHuc8meSO85CkRRGMUJAWD/wjYjyR8pr+qg38KwPpfQVExQjdmBZiaPrQsxwaHUWOO3P+UFM2f0Ug5fwT03CZRRVjI4g3J00ewfA+TSTCHzLrXBpIedqKeO/AWFcejRCMAelS9Y3fpym2TB6xAunSgaKFPCgPTp202YBTI03kCse2VYoZyDjqcDsISJO5D0ab9HnywNiSNq9HR3geJekNhE/kLbDQdmek0djGBaeiuMRf4XROpDcQPpGVvjw6Hhgl0qkDTk6SRpX7925vtGq2JJGRQCjl4dg0IG3a4LySVl1wmmSEqUColcOB9I70+QBnGZBWdXAyc+I4Gcj+G5Q9/71K+oiyvXuXRuCMieVkIETya1PIAF5unGqQTnntDwivjsunD64G8ocQpNunb2sEUVeBywmypBPlpng/sVupeuCUAtKu4oGTJ0vWEU4mviR2W/TOcgXJFTheh0zhz/mkX+iUTjmhGSBVQ3C2ZMLcB6cgyY4S/tN//q7tJVbadAxWjYyYJF8iZopLeA2y58N+SaPGMPFOq4ZLjMie6hCmNil4KbBKkqwo4BsX5uPKUsRTMiUoJX4n8wzRtcmeB7DCLBnzAt4LWTFAVJkKWfOUSai26gCscpZsaCwR0StZI/tg9QMyaJ4Bq0tWrMvuFayZgFcno4rgFcmKeQnn+a9kz12CpaVkASyvRlaIDc7pV8iedQjWMEuG1cBbVMmOeteDwvIhIHtkP9mBbApeW5Il1fu3fjn8brEcPdbJqveEX01FGbwp/Tgp8NJrsuAFR1y6PtG6mg9eiqzYgOfX6EdZD8HrkR0iB95wTT+IKCTeYf3Wcr8Ynx1B15HuewKFniN1jy14h8Iz2SMLUFjRD9GEwiJLFlV858sjmrcDkl/9/isFJL+qlaw7z6lGOYAj41lSWhkobCVZ1sjhiEP1Diyop6EQrsm6jo9DrlRosaITOrObz28ju1HDSDv+YvLkP+U8tFEnMqObdSaPUUCJkP0f+ox01HnkspSQ+QI/cWSvh1DJdCgxNV+dyE3OfltpKH1QgnYOffphyZ0PAMl/5szIAy7ON8zZedhztHL9GGqr21r7bUJtm3hdbrGFWu+G9keCd8DRCdY/2SXUSjezh9gYQS38JAc8DaG2uJF99nUBahlH/tBOGmr+jm5Aawg1z5m1iZaPMyZuVGKLI+XjDIea3Z2HM3oOjHZxyA3+SP4jrGhezyZSdqR/vc66jz0nLuGJ4AHneI79xpe4CwE4/YL+q507UVITiKIA2o2igoDigguDuAtugIMT7///WCqpSk2SmYzdiNpNOF9g1S369fKeHzVw1VrSZasaAJDvRoIhkWhCJPRtIWUeTIlQS76LlF5T0jwI6VFcZU+JVPozQL76wb7XAqgj00dyXuEnWbvQKiog1vzfTfpjXEeFOn988ppWnErSqOM6uiVCm0ZgEEuw3er6YNAU5v7qX0YmWOz6RGhKoILBakiEZ6Rgob2IvG5tO2ARj4gElDGYxML2bQ1TMPEluXqoBWAzF/JQctqBzU7kb5zr7eDdTrhv3ghVAJD5OPiZwQps6P5IBOJaGthowi64nzsuwEgVJxLXqYORKc3p9hclASv1VYiFy7A0sJpJUs6zFRKALp++nz+FTbCiUpWPd0MT7OaVGnmewZKC2cojknLH4GC2DfIU1bcFOPjC1LwMdBUcmsmQPNwoqIMDteTuaJra4NLSDfJAypsPLh0JrkW/poTgo47PVfIQNS/RwGcn4+7qb14ETvXkcP9MBiH/7xL87YOVmwD8mVwUcjdVL+yA21rmav6nSgR+6lo/kTvovy018NMKNTBpvCKTeF9xSY4Uz1ogk7HgL2rcJjGyoYug0ic5cA+WryKbzoUUTtVRkZm5aw8UkpkybCQ2MqNhgcbyfjOa4RY03jjnaZVwqY0uztKmuEUq5DtaLg4xbkXN+b69HZyqV4LoDy/tcBaruFUk0BxO/qptDTmp2/5mHzh6b3s5eN5k4nmHy7anv1j7jW9HFPlQrafPOd+ZsaeQx7IwE8Rf6I4hifnTX2keZDiHBBbCNyXmaOJDcK0Cnjy+5AkdyX8Xxw+TNQSVStbik5vhUsQd11r6N6gbnEINQlGT4h7L2bi6CWFETtHudLOoHWZirFzzszzd03d2dDp4slUgxH9dicNbqngaOruUH8cHbsPHU6R6EXpJ7uLYfngmrRchOr3FddTnFI+SlmmwMHqbOu6uOW6Ue1xmtYGVUtxPK/DKKs7LrQQtivzFr9uyiGdlVKx5E7lR0/BcrlO3qnV7+1S7OYvFvjEtl6n8jC4vu1YzUxT2xjl/k3uqQ1j9Qc9KfFNlCsL0d1bDO5VRPIDR9ba6EyabddqyzU4UrVarqGParXS9SUJH33pdSQv3d7u31lBbCr70AAAAAElFTkSuQmCC;" parent="1" vertex="1">
          <mxGeometry x="561.4499999999999" y="245.5" width="77.09" height="69" as="geometry" />
        </mxCell>
        <mxCell id="kkhZQI9KyQwzsgTlf-WE-20" value="" style="shape=image;verticalLabelPosition=bottom;labelBackgroundColor=default;verticalAlign=top;aspect=fixed;imageAspect=0;image=data:image/png,iVBORw0KGgoAAAANSUhEUgAAAgAAAAH+BAMAAAAYJqs9AAAAAXNSR0IArs4c6QAAAARnQU1BAACxjwv8YQUAAAAbUExURQAAAAAAAAAAAAAAAAAAAAAAAAAAAAAAAAAAAJRR4iAAAAAIdFJOUwAdMkp2rdDoWgLXxwAADPtJREFUeNrt3Ut300gaBuCSJSdZmiFAlp7unjleejpcvIxDYLQMTAhahu4JaBkODXhJEl/0s+c0PcSWVFe5qlSqer/Tm06KWHpckuryVYmQ7ePxSTmOGxX5pVLkeaMibURaVONTgyLPakXmDYq0Ef2iHuNykYRS5Ei5SEwpcuoAwIRyXNfiIjflIiNKkdtykQNxkVYipxxXpWpmlCIL5SIppcjSAYBCfFy0IqtykRmtjFi6aP/8I4mzK8SHLlGEajQAAAAAAAAAAAAAAAAAAAAAAAAAAAAAAAAAAAAAAAAAAAAAAAAAAAAAAAAAAAAAAAAAAAAAAAAAAAAAAAAAewD2ssXbB6Ce3UJ86EvlIpmb6fLUdQy34iJz5SITcZFW4pF4Kc8upchFucgOpchVuQhtcdJHBwB6M9EVQKJ6BV8OlItQroHV0AEAkrz9Wo7LcbVILFHkvFLks0SRI4JAIBAIBAKBQCAQCAQCgUAgEAgEAoFAGI/e4/MPX52IL5fP7c8RRi8Lp+LMcqbEfl44FsupzfN/UDgYrwI/f4sCSeFoWEoX6OWuAiztPAzSwtmwkjPVLxwOCxstR7nLAEvzzYGHhdPxzngFmLkNYLwK7BSOx4VhgMx1gEWgbSBbraGJ+wA3Id8CKQsRAmoE2bgGRl0AMHkNlFuBy7MTy3HXDfnv5k9f5LaeA+XXnLy2Pw65w2jzPykd2NBOK2hK3AEg+3Z6RKN2BqAkAEpdFHM3gazt1UpsgM1RCnM3AfujT/IAiYW1dHHry9U4AJtVYGy+GXTqHoCFo9trfcUqD2BjDe834w+Btl7xxQPY6KhdGx8OvnIRYNf495O1/AwQACTGb9F564vWuQARa9m5tpiZ/oDtANZfkKkhgfYXrfMBUtMtodABotafggKAieF7VGRn3LE5wAgAAAAAAAAAAAAAQBEgukeNgU8AvHNkpn2+9gfgH5zk0lh6mrW7AJy0jjE5YP/y1hcATlrHNS/vc+ULwIyXW8rL+Rj4ARBx80l4qQZDPwBi3jlyAcYAsAOw/7b6yZ+nIQHsSy//8BMglk/28hMglc959RIgVsj38xJgJNkQ9RaAvQIlDAD5zpinAJz046sgAPZ4PbUQAEbS3XFPASYqyyAB4CFAqrL+CTUANcDfGvDp8C6eBlkDruptI3drwO09fcEBcLcGmIhO1QBLAKgBqAGoAagBqAGoAagBqAHtAQz9qAE9LkDeIEGiYzWAd+BLhf54Z2sAb++fOW9npBviRw3gjTxf8DZHG/pSA9g3gT933qq9x/HHZrXVJI3u1gCyz9gA+FJpnXl3a4CmWAPMD/VFZqMG6Abo2Jig2wAT1ADj8wLdqAEGZ4ZQA1ADAOAwwCh0gD3pzpinAJze6LcgACzkCboNwFmzMwgDYCJ/D/QToM8erAkDgDViR9sm3U8AxrrOUxIKAHlKO/9PJByAyq643+M/JCQAEv1UiQEJC0C52QgAAAAAAAAAgB6AfVZ/NIBdZFZTbv5ICLvIDLGLTMrLn/EEIOeNPGMXmQZpch0D6Dm9ZsgCALbRAQAAAKAXYPl+i7g87j7AlvFb6ADN39DhCwB7e/77J2/enB17D8Dqr8f/31Vueew7AP0a2NhV7g/PAaivgnogmBv3CYD2KqjE2NyggwCUu2Cv2i9/FRhAbWBmNQwKoC+l5DFAJvx4vwH6ckz+AqQyy9Y8BmAc4sdgAA4kFwx4C5BJHYBDAyLnby6b/HfOAIhlm8xdHxLrMQB2ZbNlfQXYeAaszk4ydr/ZV4B1N2A+KE9mHwUBsD7AxV9H/s+7H1wFAdCvfeDdVbA4KUXqJ8Be7cd90XPUL4BR/YrP3QAY2gFI6wkZBzoB+NPjNhMkGABZ/c8mOgH4CRI2U2QYAD++gwv5ZrfGFJld9i9vLAHQHvq5TgDO6tQrEs0k74HGACLa52U6Adh3wdWAkISBvWTvImMIYGAKgOyzzlFpltIUwN1PiTEAPWEVIG0wt9ZVAOolIAAY+wRAGtwEiZcAp5SfyQ2UdBwgrw+AxXyAC78Asvr3usM9/9XAL4C0ftwT9YdghwEOaifG7QowE2g6C7BTmwh5xL/bOQ1w/8WHr1/O/qUCkFTr9jpZ4rprAD/yvIrFWB5g/YdX3/9VlApu9+4CJOuu5WoqPyy+bvWsjgm5nwlafO4CJIL2Ogug1F+flcZrOgUQl4cWVmNZgL56SqmTAJlodpsFEKm1+FwFeChMcGABMPt+gy4B9GbCHBcmwI5Kn8dVgJH4GmYCREpNXjcBIompFSYAfdx2SboE8EgiKZgNEEvlSDkNkEnMrbABaN2/1aBLAInM6CUHgDJ/9450CeBAZnaJA1B/iM5JpwAymflFHkC1LbAadwoglhrA5gL0yrM3U9IpgJ3NPK/Dk7ygZvlwAUicC5ZLuAyw/uzFsNyjv5UGIL2MOS9pEiD5oGFyNKus81i/uWQhD0DIL9lfdajZN6g+OfrliGiaHq/13/q0g+mJu7l/Ozz8e9Mq2mx6XEuCRFy/6WcUxl6zfv7WANwECS0pMkm96btL6dG0BWB+F5md+tcdUx4DLQFY2EVmjzKGl9f7Qy0BWNhFZkRpvk7qJ9sSgIVM0Qml93tQR/EXIKWs8NgNEeCCMtYNAAAEBHBFaRvMQ30K7IUEMKKcmKZ2QPyy3lZlvCexRYA9Su8h09ISTOhN9aljALv1xnOPsvpTHYD5RtSxWwD9es9nR0tvcKSSKtkiQFwf/0kpMwPKAPJ7/rYMENWOK2k4IiQz38b6E20um8sqaz/XP1iSLQAyXkfeKYBJ5eJ8Rr1YVQEitSUDbQJsjCwufr3387/X//ttCwDu4rkrpwASqS9KFWCPd3A3TgGwhxbJFgAjtTUDrQJMZG7WqgDcnPGFWwB9mcx2VQDuwqGlWwCsCaZBKACM6/WWBAMQSzysvQagHu2caAH4/XAjnrgKEItba00BLmhNDucAKA+tWxIUQG3worYppucAtfbwEQkMoPI+o9/Y4xvzn6SidQDlXWQ2BV4rDfBwY0sAm7vIrLORPhJnAKzuItOnHnS7APwUGc2v2nISgPuqLc0vW3MSgPuyNc2v23MSgPu6PfnoMICeAAAAtgWIQgcgwQNkoQOMQgfohw4g3CzVe4B+6ADMRmkwAKT386F0ZD4CqEQKAAAA4HsqwJuNeBsgwJaTowAAgJcAiwAAJqEDcF+zcBsAAHdv2esAALipsqcBAHBnbochAExU7oE+AnDGTz4GAcAZRh5oA4jPv1Lj/dQBgL5CBeDtIvOefo5/LkCMctnbTBsArLvAnKgAsKfklgPes/bGAQDyknr+AyWAEW+4MZW+0bYDQO6f1OJXekkmQMZLkcm1JkkZAJCPJklSS90vW3MRwMIuMm4DxAAAQAsApZFcqZj6BdAgXoUOUIxDB7gJHWAVOkBxFDrARegA30IHuA4d4Kb7AEnoAHHoACR4gDR0gJ3QAaI8cICtngNeAJD98/eK8cEvAPWIAQAAAAAAAAAAAABcAxiGAKB3FxknARrvIlOZp+gsAO9L1r6LjJMA3F1kYul5mu4CJNz7/APW734nvgCQp9wZ+egeNWqpeB0GkD5HbnQZQEsAAAAAAAAAAAAAAOh/V5omgIlhAMJfsdM+wLpnTwBgJGbrdSZOAuSaMk7FH6D7GtMDEBWmvqAfkWlKaTUEkBi7ROvX2JWLALvGnlL15+zcRYBUU8IpO/YKQzcBLQCRrpRjdmykwZ66B2Ds6CjHqfsa0AKQalt6I9ES0vwc0AGwOfRt6vw3FyHPXQNImYu+jTwGiuKdWwAP9a294kQpDXbqEsD+5pGdGgMoT6O9dgfgCW/nCzO9ge9N7rMTPfHi7s7S7J/nvH0fjN0EnI0bgwBJFwCODAJw80kciZXJ8+/CNXBjFCAJ/Apo/IoEe7Ewe/7bLQmyEaa37thqSZCFWBLT8dBtgHfGAUge8h2AbL082nCcWgDYbm2o2bi1cf6k5+xFsBxYAXC3NXRELMUDN8//FSFBC0yJxdh37j6wtHr+hEQv3Dr/swGxHb3H5x++OhFfLp8PCQKBQCAQCAQCgUAgEAgEAoFAIBAIBAJhPJK3lPc4lqP2Vks9RT4fuXD+vZkwVYmSW1dN5pAoQknSXLkwJ/hInKu0K05opCVgVtan0rKzPjoAkIqTlSSKTKhb3akWaSUk0vVycUqnRBFqmnL75x9JJKxKpPXPxGeXize9dAZgJQYolIvMAAAAAAAAAAAAAAAAAAAAAAAAAAAAAAAAAAAAAAAAAAAAAAAAAAAAAAAAAAAAAAAAAAAAAAAAAAAAAAAAwGK0my3e/vlTj6uyjiETLymQKJKKpVsJ2kKOa3GRyi74I/GikgNxkVaCtpSnsuCLtg3tkXKRWLw4qZ2oV81PDYo8E68HkijSTjyuvPXluFGRXypFnjcqohz/AxaofkE9UYXYAAAAAElFTkSuQmCC;" parent="1" vertex="1">
          <mxGeometry x="469.8" y="160" width="76.3" height="76" as="geometry" />
        </mxCell>
        <mxCell id="kkhZQI9KyQwzsgTlf-WE-21" value="" style="shape=image;verticalLabelPosition=bottom;labelBackgroundColor=default;verticalAlign=top;aspect=fixed;imageAspect=0;image=data:image/png,iVBORw0KGgoAAAANSUhEUgAAAgAAAAGYBAMAAADGi0d6AAAABGdBTUEAALGPC/xhBQAAAAFzUkdCAK7OHOkAAAAYUExURQAAAAAAAAAAAAAAAAAAAAAAAAAAAAAAAFY3HCoAAAAHdFJOUwBBBoQW2Fqm789iAAAK2UlEQVR42u3dTXfaOBQGYBsM2ULblK3bNOmWlLbekkk6bGkT6m3adGAbIIa/PyE2Hza60hWWKTKvNnPm1MHWY0lXupbBaR55ceZHXgAAAAAAAAAAAAAAAAAAAAAAAMcMMH5/ZGWUBXCOrAAAAAAAAAAAAAAAAAAAAAAAAAAAAAAAAAAAAAAAAAAAAAAAAAAwX/6bR4PbTqfzdTj81Wx2ywRwNWz6yoOq6QfSUbc0AN6XRX3+qA47yTyS/1EWAC+I//aTJsC4LADLz4ga8uNqhQJUrprNG/9vAKy79kzRUjIAT0YBei+fOei82TtAsK7SPe9kSXk0CrC6jOnlfgHq/HuaCQN9owDh+oOnv/cJ0NuMbPyLfC7tYlrAolz6+wNInfiej6U8WPs6ZsOHzmDZCLr7AvB0urWbOrhrGODl5O8eQlZIMgZQ1YpsqWHQKQLgOR6+DjUEcgOkg/tUcfS5xoCxK0AyM2VOtXMDpLt1pNEFpmYBRvPJ+n9es8eBvABumNlyy5kzs6ZN+gCbQfgiZJ4hJ0C2/vKBbVTkUiANEAvcFQ2QvqUqgG/pQyeGav4h/k8rMw274EXaXADb9ZedsT4vYCJYeT2YLgEy1362GAb8IgEq2/WXnNHL9hYTE8HrcDWYbgG8tLi7AgFE9Z/Pv7OPzj8RTMLdMhzNRJVrFAcwEr96QdzY060DG3nrfxFuRh4BwKLRzQoDOCXePRHPP862D/TzNv/0B30U1PWMv0TXBjgl374ZK8JlZGYieJ1pSieimdVIOd/aFeCb5P2jT9IBYHpjZCJ4nR1MhACucrDdEeBa9gLWdidopca+lgGA+taoIwRY3KhpAQDX8lfQZpLDPy8vPtdEMDUDbSersikRfO+NA6RHNEE0vCPv1vdVDiVPSjQdU/sSgEUTmJkGuEhV9nNd0Aaex6WLL/PoazczA4rnSed5U6KngixMTTysLs7eMARwNfy1qFA9NaX7vB4Qo82Kxs1+2kjNF5IkhZdzJlwXLSoIgMXVPRkBcBfNLvqcWQDerT8kamyEhttVbu6bID60cs2Es5PKcZKaiqicXeQbAFjW+zIUTHwXSajbRiZBmpZIDQ3VXBPBb8IxlwJYaLcNACgm/jddYXqAypeFOeZBnvhzq1Q2pi4dBrkA55xwJ5zxCqcHZ5xchUPeUS2Axb3r5gYQ3VrR0ndEA6TC8c3uU4BtWQVATTbiMgGqovp3Oav+zXBhpLQE7/4nLd0n+8wsL0CLWX8xlckUqDsn1pV1uqGPJH2ACRBy6y+00nlUtUMDiAOKBKAqiQM8AEG/a2gkCk1kP6gQsBpdXPokniS68QCq/PpvJz85u2fY5ZxMQkkAnmsZ5QPI7u6J7vVyBd+NZf8DEsCTANToJSEPINvxfutlS9XJaW4RD7H9BOBeMnL2cwGM9Bp0j99fDAyByXJQBvA8iM9MAjh6AOZ2gnjiEPuyHKzIAFrkIMADCPQAPhYTAchJRnzRMukaeRWFtIATjQemBnpA0rxlAPQgsMsgGOndKHMbISrSZaa0r4VUVoQH0NPaBpKZCUyL7gHJGUL5sn+aB6CmN62vFLQPoEcttBOAvnRYMjcTVOdzg2L2Q5IrTTVAlRoFeQAeGdYqm1/QLr5VmRNfrf9Ac3R0yVSDH6v3pQG0nWc1GFCjek8I49JDgLf76FAjARrx/LMvbT2PeQB61GUH4j0vAdkDqrvvFGzJk02B9FFDoIjwCgCXetGDAFhXM5uSzgFAZ1zbaoAe0d64OcER8eiTAFgf33ZMAdBDAAeAem7CBagTz/0ogGVu8LtjDKBKA/Tjqkzkf+3nei5wKl7aUgDxg6T5T8ccQI8GeIyr8iSfnDVyATj/CXN7JIBTedv5+soxCBDQABM1ABUHNR6OLp5//ew6XABOQzY0BsZX3ZLP0Ih5ktbj8ffy21IsgKvakdGSXzwxRubdLL0/gKrqqaMS4MlugJoKoCdfpRE+9gD0ZM9dGQDEP9sDMJJ+M7gj3imZSlNN7QaQbj3w6Rquu5DlANKNeQ05wIfmsBOI58LWALhSgHsCYFHzLwNZctIagLoUoJ1t497V287qLUrZ6awBqDIBKldvHzqDULFHyUKAmhSgHy94iZrHHWDwyWqAEynAo4xo0OkM33SdPFnhAwDoSQEmwk4yuO0Mm//wphcHD9CSAozTn/xSc95GNGsARsoN+t5LR+98/aX1TSLWAARz5SbUd298R7uUCWCnUhKA6PAAvPUTsFcmAEL5WzqHBxAQL1EVBOAfGkCFeppaEEDj0AC8PQPcHztAu2AAd7Au7UMEGBcMUKN2yBwKQJQKPTeZ8vLDen4egBPN/QF7B1jtGOe/z6oF8PGvAwQKgInyqJIDxFd1frwA8c4lV3uctAZgpAJoq5wsB2ipAMaqxNGT3QA9FUCkyp4/2g3wUQWQLAeCsgLUlAA/FC2lbzdAVQkwU/SBdtkBkpxAqLdgtAbAVQO05X2gYTdARQ3wJO8Dvt0AytXQ6sJCrbypPQDBnBkIe1qZc3sAWmqAvmy4nNkOcDJnBkKiD0xsB2DEwWSca2nMgywCYMTB5ERVnbyxPQCMMJAEwkpI5gusBmCEgSk9XuZ7efogAHqMPtAl+8DMfoDanBsIRX1gYj8AZxQck32gbT8AZxSMyJDZLQHAiNEE7rfPLt9BYRMAZxCYEFbjMgDU5+xAWGXOA+0C4AwCSV/32BsorAJgLAiX5xpxd5FZBVDlB8Ia56GIdQDenB0IPe4GEqsANAJh+lDJ18raBcAJhD8Eh46dkgB4/EDoMbdQ2QXA6gPdrSsz8MXKhwJQ5QfCGicGWAdQYaeFNhePjfIAcLIiUfbSpk6JADhJgeSGn7N2kdoGwH8+srKSDYEWAjCWhLP0tf1wSgXAiYT+Zh+QNwALAersQOgyGoCFAIwm8LRxcYoGYCOAy50Nv8TMtlM6AOmvXKUCocv49ktrtstvfnbIDITPV9cwBEC+MDGidiJSD2brnFy1opxxA2HvzjEEsPnrKZ+Ia0l/g/Yp0WQ2v3h85+9cV82GliOf55gCOLDiBbxA6JQVQDkZeCo7gGoYGJceQP6Lfxq/aGItgOQ3P7V+0cVegPgH1vPW32YAqhf89J0jAXDeiaLh5W5LKysBnMpWN7jVfY/eboDnKdHD5sLg9s/Oi2tbAZ5bwb/xF2gNbi+7O/y5/QA5CwAAAAAAAAAAAAAAAAAAAAAAAAAAAAAAAAAAAABgu1Te77McIADnhTVjZQoAAAAAAAAAAAAAAAAAAAAAAADA8eUDfGSEAAAAAAAAAAAAAAAAAAAAAAAAAAAAAAAAAAAAAAAAAMBfBDgdWFNuCwHY66OxvT5YAwAAAAAAAAAAAAAAAAAAAAAA0ABXTWvKGyREAAAAAAAAAAAAAAAAAAAAAAAAAAAAAAAAAAAAAAAAAAAAAAAAAKgBZjdHVrIAR1sAAAAAAAAAAAAAAAAAAAAAAAAAAAAAAAAAAAAAAAAAAAAAAAAAAAAAAAAAAAAAAAAAAAAAAAAAAFBagE5RxfCFTgu6zMJ2Y7uGAfq2bUcHAAAAAAAAAAAAAAAAAAAAAAAAAAAAAAAAAAAAAAAAAAAAAAAAAAAAAAAAJQG4GJLlwTDAT/JMfxOgdxC7fAAAAAAAAAAAAAAAAAAAAAAAAAAAAAAAAAAAAAAAAAAAAAAAAAAAAAAAAECR5V3zAEq+KvwPXDqz63oe4GEAAAAASUVORK5CYII=;" parent="1" vertex="1">
          <mxGeometry x="600" y="360" width="112.94" height="90" as="geometry" />
        </mxCell>
        <mxCell id="kkhZQI9KyQwzsgTlf-WE-29" value="" style="curved=1;endArrow=none;html=1;rounded=0;dashed=1;endFill=0;strokeWidth=2;fillColor=#d5e8d4;strokeColor=#82b366;" parent="1" edge="1">
          <mxGeometry width="50" height="50" relative="1" as="geometry">
            <mxPoint x="100.38999999999999" y="279.5" as="sourcePoint" />
            <mxPoint x="160.39" y="279.5" as="targetPoint" />
            <Array as="points" />
          </mxGeometry>
        </mxCell>
        <mxCell id="kkhZQI9KyQwzsgTlf-WE-30" value="" style="curved=1;endArrow=none;html=1;rounded=0;dashed=1;endFill=0;strokeWidth=2;fillColor=#d5e8d4;strokeColor=#82b366;entryX=0.499;entryY=0.002;entryDx=0;entryDy=0;entryPerimeter=0;" parent="1" target="kkhZQI9KyQwzsgTlf-WE-1" edge="1">
          <mxGeometry width="50" height="50" relative="1" as="geometry">
            <mxPoint x="200" y="160" as="sourcePoint" />
            <mxPoint x="240" y="210" as="targetPoint" />
            <Array as="points">
              <mxPoint x="240" y="180" />
            </Array>
          </mxGeometry>
        </mxCell>
        <mxCell id="kkhZQI9KyQwzsgTlf-WE-31" value="" style="curved=1;endArrow=none;html=1;rounded=0;dashed=1;endFill=0;strokeWidth=2;fillColor=#d5e8d4;strokeColor=#82b366;entryX=0.048;entryY=0.034;entryDx=0;entryDy=0;entryPerimeter=0;" parent="1" target="kkhZQI9KyQwzsgTlf-WE-1" edge="1">
          <mxGeometry width="50" height="50" relative="1" as="geometry">
            <mxPoint x="110" y="190" as="sourcePoint" />
            <mxPoint x="152.51" y="250" as="targetPoint" />
            <Array as="points">
              <mxPoint x="150" y="200" />
            </Array>
          </mxGeometry>
        </mxCell>
        <mxCell id="kkhZQI9KyQwzsgTlf-WE-32" value="" style="curved=1;endArrow=none;html=1;rounded=0;dashed=1;endFill=0;strokeWidth=2;fillColor=#d5e8d4;strokeColor=#82b366;entryX=0.75;entryY=0;entryDx=0;entryDy=0;exitX=0.5;exitY=1;exitDx=0;exitDy=0;" parent="1" source="kkhZQI9KyQwzsgTlf-WE-1" target="kkhZQI9KyQwzsgTlf-WE-14" edge="1">
          <mxGeometry width="50" height="50" relative="1" as="geometry">
            <mxPoint x="160" y="339.75" as="sourcePoint" />
            <mxPoint x="200" y="399.75" as="targetPoint" />
            <Array as="points">
              <mxPoint x="240" y="380" />
            </Array>
          </mxGeometry>
        </mxCell>
        <mxCell id="kkhZQI9KyQwzsgTlf-WE-33" value="" style="curved=1;endArrow=none;html=1;rounded=0;dashed=1;endFill=0;strokeWidth=2;fillColor=#d5e8d4;strokeColor=#82b366;" parent="1" edge="1">
          <mxGeometry width="50" height="50" relative="1" as="geometry">
            <mxPoint x="168.35" y="339.75" as="sourcePoint" />
            <mxPoint x="120" y="370" as="targetPoint" />
            <Array as="points">
              <mxPoint x="160" y="370" />
            </Array>
          </mxGeometry>
        </mxCell>
        <mxCell id="kkhZQI9KyQwzsgTlf-WE-36" value="" style="curved=1;endArrow=classic;html=1;rounded=0;dashed=1;endFill=0;strokeWidth=4;fillColor=#f8cecc;strokeColor=#b85450;entryX=0;entryY=0.5;entryDx=0;entryDy=0;startArrow=classic;startFill=0;" parent="1" edge="1">
          <mxGeometry width="50" height="50" relative="1" as="geometry">
            <mxPoint x="320" y="304.13" as="sourcePoint" />
            <mxPoint x="440" y="304.88" as="targetPoint" />
            <Array as="points" />
          </mxGeometry>
        </mxCell>
        <mxCell id="ZaFesOHTbxi_dMKPDQo5-1" value="Embedded system ARM SystemReady" style="rounded=1;whiteSpace=wrap;html=1;fontSize=15;fillColor=#B9E0A5;strokeColor=#82b366;fontStyle=1" parent="1" vertex="1">
          <mxGeometry x="165.2" y="255.38" width="150" height="48.75" as="geometry" />
        </mxCell>
        <mxCell id="2H1fJ5eTuKVXAPZKAdKG-1" value="" style="curved=1;endArrow=classic;html=1;rounded=0;dashed=1;endFill=0;strokeWidth=4;fillColor=#f8cecc;strokeColor=#b85450;entryX=0;entryY=0.5;entryDx=0;entryDy=0;" edge="1" parent="1">
          <mxGeometry width="50" height="50" relative="1" as="geometry">
            <mxPoint x="320" y="255.38" as="sourcePoint" />
            <mxPoint x="440" y="256.13" as="targetPoint" />
            <Array as="points" />
          </mxGeometry>
        </mxCell>
        <mxCell id="2H1fJ5eTuKVXAPZKAdKG-2" value="1" style="ellipse;whiteSpace=wrap;html=1;aspect=fixed;fontSize=14;fillColor=#fff2cc;strokeColor=#d6b656;" vertex="1" parent="1">
          <mxGeometry x="325" y="225.5" width="18.5" height="18.5" as="geometry" />
        </mxCell>
        <mxCell id="2H1fJ5eTuKVXAPZKAdKG-3" value="provisionning" style="text;html=1;strokeColor=none;fillColor=none;align=left;verticalAlign=middle;whiteSpace=wrap;rounded=0;fontSize=13;fontStyle=0" vertex="1" parent="1">
          <mxGeometry x="343.5" y="219.75" width="60" height="30" as="geometry" />
        </mxCell>
        <mxCell id="2H1fJ5eTuKVXAPZKAdKG-4" value="2" style="ellipse;whiteSpace=wrap;html=1;aspect=fixed;fontSize=14;fillColor=#fff2cc;strokeColor=#d6b656;" vertex="1" parent="1">
          <mxGeometry x="325" y="315.5" width="18.5" height="18.5" as="geometry" />
        </mxCell>
        <mxCell id="2H1fJ5eTuKVXAPZKAdKG-5" value="communication" style="text;html=1;strokeColor=none;fillColor=none;align=left;verticalAlign=middle;whiteSpace=wrap;rounded=0;fontSize=13;fontStyle=0" vertex="1" parent="1">
          <mxGeometry x="343.5" y="309.75" width="60" height="30" as="geometry" />
        </mxCell>
      </root>
    </mxGraphModel>
  </diagram>
</mxfile>
